STARTFONT 2.1
COMMENT This font was automatically resized by bdfresize-1.4
COMMENT   mag_x = 24/68, mag_y = 24/68, blackness = 4
COMMENT ======================================================================
COMMENT Font Status: Complete.
COMMENT              Addressing will shift later by +0x1200
COMMENT ***********
COMMENT Ethiomx10d300.bdf is a 100% scale from EthioLaTeX ethio[x]10.300pk,
COMMENT with much added!
COMMENT ***********
COMMENT This Is The Unicode Ordered Ethiopic Font with shifted address to
COMMENT start at zero for coco handling until new CCL code is written for
COMMENT Unicode in coco.
COMMENT Extension candidates are added in 4 rows at the end in a compressed 16
COMMENT column format. SERA character names are given for alphabetic elements;
COMMENT punctuations and numbers are named descriptively.
COMMENT Unicode encoding begins at hex 1200 / dec 4608
COMMENT ***********
COMMENT Another Fine Admas Product : fisseha@cig.mot.com
COMMENT Available at ftp://ftp.cs.indiana.edu/pub/fidel/sera2ps/
COMMENT See also ftp://ftp.cs.indiana.edu/pub/fidel/info/unicode.ps
COMMENT ======================================================================
FONT -Admas-Ethiomx10d300-Medium-R-Normal--4-53-300-300-P-129-Ethiopic-Unicode
SIZE 4 300 300
FONTBOUNDINGBOX 24 22 0 -5
STARTPROPERTIES 4
COPYRIGHT "GNU CopyLeft"
FONT_ASCENT 17
FONT_DESCENT 5
DEFAULT_CHAR 403
ENDPROPERTIES
CHARS 412
STARTCHAR he
ENCODING 4608
SWIDTH 218 0
DWIDTH 13 0
BBX 10 12 1 0
BITMAP
0380
73C0
71C0
71C0
F1C0
F3C0
F3C0
F3C0
F380
E300
6600
3C00
ENDCHAR
STARTCHAR hu
ENCODING 4609
SWIDTH 290 0
DWIDTH 17 0
BBX 16 12 1 0
BITMAP
0380
73C0
71C0
71C0
F1FE
F3CF
F3C7
F3C0
F380
E300
6600
3C00
ENDCHAR
STARTCHAR hi
ENCODING 4610
SWIDTH 212 0
DWIDTH 13 0
BBX 12 15 0 -1
BITMAP
71C0
71C0
F1C0
E1C0
E3C0
FF80
0700
0F00
0E00
1E00
1C00
1C20
3CE0
1FE0
00F0
ENDCHAR
STARTCHAR ha
ENCODING 4611
SWIDTH 200 0
DWIDTH 12 0
BBX 10 14 0 0
BITMAP
71C0
71C0
F1C0
E3C0
E380
FF80
0700
0F00
0E00
1E00
1C00
1C00
3C00
1C00
ENDCHAR
STARTCHAR hE
ENCODING 4612
SWIDTH 200 0
DWIDTH 12 0
BBX 11 14 0 0
BITMAP
71C0
71C0
F1C0
E1C0
E3C0
7F80
0700
0F00
0E00
1E00
1CE0
3CE0
3FE0
1F80
ENDCHAR
STARTCHAR h
ENCODING 4613
SWIDTH 218 0
DWIDTH 13 0
BBX 12 14 0 0
BITMAP
71E0
F1E0
70F0
70F0
F0F0
F8F0
3CF0
3CF0
38F0
38F0
38F0
38E0
39C0
1F80
ENDCHAR
STARTCHAR ho
ENCODING 4614
SWIDTH 284 0
DWIDTH 17 0
BBX 15 13 1 0
BITMAP
01FE
21CE
F1CE
71FC
71E0
F3C0
F3C0
F3C0
F380
E380
E300
6600
3C00
ENDCHAR
STARTCHAR le
ENCODING 4616
SWIDTH 230 0
DWIDTH 14 0
BBX 11 14 1 0
BITMAP
0C00
1C00
1E00
1F00
3F80
7BC0
71C0
F1C0
E1C0
E1C0
E3C0
E3C0
E1E0
F1E0
ENDCHAR
STARTCHAR lu
ENCODING 4617
SWIDTH 302 0
DWIDTH 18 0
BBX 16 14 1 0
BITMAP
0C00
1C00
1E00
1F80
3FC0
79C0
71E0
F1EF
F1C7
F1C3
F1C0
F1C0
F1E0
F1E0
ENDCHAR
STARTCHAR li
ENCODING 4618
SWIDTH 302 0
DWIDTH 18 0
BBX 15 15 1 -1
BITMAP
1C00
1C00
1E00
1F00
3F80
7BC0
73C0
F3C0
F3C0
F3C0
F3C0
F3C4
F3DC
F1FC
001E
ENDCHAR
STARTCHAR la
ENCODING 4619
SWIDTH 224 0
DWIDTH 14 0
BBX 11 14 1 0
BITMAP
1C00
1C00
1E00
1F00
3F80
7BC0
F1C0
F1C0
F1C0
F1C0
F3C0
03C0
01C0
01E0
ENDCHAR
STARTCHAR lE
ENCODING 4620
SWIDTH 290 0
DWIDTH 17 0
BBX 15 14 1 0
BITMAP
0C00
1C00
1E00
1F80
3FC0
79C0
71C0
F1C0
F1C0
E1C0
E1FC
E1CE
E1EE
F0FE
ENDCHAR
STARTCHAR l
ENCODING 4621
SWIDTH 248 0
DWIDTH 15 0
BBX 13 14 1 0
BITMAP
0E00
0E00
0F00
0FC0
1FE0
3CF0
7870
7070
FE70
FFF0
EFF0
E7F0
FE70
F078
ENDCHAR
STARTCHAR lo
ENCODING 4622
SWIDTH 345 0
DWIDTH 21 0
BBX 20 14 1 0
BITMAP
1C0000
3C0000
1C0000
1F0000
3F83E0
7BFFF0
73CE70
F3CE70
F3C7E0
E3C000
E3C000
E3C000
E1C000
F1E000
ENDCHAR
STARTCHAR lWa
ENCODING 4623
SWIDTH 302 0
DWIDTH 18 0
BBX 16 16 1 -2
BITMAP
1800
3C00
1C00
1F00
3F00
7F80
F380
F380
F380
F380
0380
03C0
03C6
7FFF
780F
7002
ENDCHAR
STARTCHAR He
ENCODING 4624
SWIDTH 308 0
DWIDTH 18 0
BBX 16 14 1 0
BITMAP
01C0
01E0
01E0
01C0
01C0
01F0
1FFE
39CF
71C7
E3C7
E3C7
E3C7
E387
E3C7
ENDCHAR
STARTCHAR Hu
ENCODING 4625
SWIDTH 399 0
DWIDTH 24 0
BBX 21 14 1 0
BITMAP
01C000
01E000
01C000
01C000
01C000
01F800
1FFE00
39CE00
73CF70
E3C778
E3C738
E38710
E38700
E3C700
ENDCHAR
STARTCHAR Hi
ENCODING 4626
SWIDTH 399 0
DWIDTH 24 0
BBX 22 15 1 -1
BITMAP
01E000
01E000
01E000
01E000
01E000
01F800
1FFE00
39CF00
71C700
E3C700
E3C700
E3C708
E38738
E3C7FC
00003C
ENDCHAR
STARTCHAR Ha
ENCODING 4627
SWIDTH 308 0
DWIDTH 18 0
BBX 16 14 0 0
BITMAP
01C0
01E0
01E0
01C0
01C0
01FC
1FFF
7BCF
E3C7
E387
E3C7
0007
0007
0007
ENDCHAR
STARTCHAR HE
ENCODING 4628
SWIDTH 399 0
DWIDTH 24 0
BBX 20 14 1 0
BITMAP
01C000
01E000
01C000
01C000
01C000
01F800
1FFE00
39CE00
73CF00
E3C700
E3C7C0
E38770
E38770
E3C7F0
ENDCHAR
STARTCHAR H
ENCODING 4629
SWIDTH 308 0
DWIDTH 18 0
BBX 16 15 1 0
BITMAP
0F00
0F40
0FE0
01E0
01C0
01C0
01C0
0FFC
3DCE
71C7
E3C7
E3C7
E3C7
E387
E3C7
ENDCHAR
STARTCHAR Ho
ENCODING 4630
SWIDTH 296 0
DWIDTH 18 0
BBX 16 14 1 0
BITMAP
01C0
01E0
01E0
01C0
01C0
01F8
1FFE
3BCF
7387
E387
E007
E000
E000
E000
ENDCHAR
STARTCHAR HWa
ENCODING 4631
SWIDTH 308 0
DWIDTH 18 0
BBX 22 17 0 -2
BITMAP
01C000
01E000
01C000
01C000
01C000
01FC00
3FFF00
73CF00
E38700
E38700
E1C700
000700
000700
000718
00FFFC
01E03C
01C008
ENDCHAR
STARTCHAR me
ENCODING 4632
SWIDTH 351 0
DWIDTH 21 0
BBX 19 7 1 2
BITMAP
0FFFE0
39DEE0
71DEE0
F39CE0
F79DE0
E73DC0
FF1F00
ENDCHAR
STARTCHAR mu
ENCODING 4633
SWIDTH 429 0
DWIDTH 26 0
BBX 24 7 1 2
BITMAP
0FFFC0
39DFEE
73DCFE
F39DEF
E7BDC0
E73DC0
FE1F00
ENDCHAR
STARTCHAR mi
ENCODING 4634
SWIDTH 405 0
DWIDTH 24 0
BBX 23 15 1 -1
BITMAP
07FFE0
3FFEF0
71DC70
E3FCF0
E3BCF0
E79FE0
7F01E0
0001C0
0003C0
0003C0
000380
000384
00039C
0003FE
00001E
ENDCHAR
STARTCHAR ma
ENCODING 4635
SWIDTH 375 0
DWIDTH 22 0
BBX 20 14 1 0
BITMAP
03FFF0
3FFEF0
71DE70
F3DC70
E3BCF0
E79FF0
7F00E0
0001E0
0001C0
0003C0
000380
000380
000380
000380
ENDCHAR
STARTCHAR mE
ENCODING 4636
SWIDTH 405 0
DWIDTH 24 0
BBX 21 14 1 0
BITMAP
03FFE0
3FDEE0
73DCE0
E3BCE0
E7B8E0
E73FE0
7F01C0
0001C0
000380
000380
0007E0
0007B8
0007B8
0007F8
ENDCHAR
STARTCHAR m
ENCODING 4637
SWIDTH 357 0
DWIDTH 21 0
BBX 18 13 0 0
BITMAP
1FFF80
7F39C0
F739C0
F739C0
F739C0
F71F80
3F0000
1E0000
3C0000
780000
F00000
E00000
E00000
ENDCHAR
STARTCHAR mo
ENCODING 4638
SWIDTH 357 0
DWIDTH 21 0
BBX 17 13 1 0
BITMAP
1FFF00
777380
E77B80
E77B80
E77B80
F73F00
7F0000
0F0000
0F0000
0E0000
0E0000
0E0000
0E0000
ENDCHAR
STARTCHAR mWa
ENCODING 4639
SWIDTH 417 0
DWIDTH 25 0
BBX 22 16 1 -2
BITMAP
07FFE0
3FDEE0
73DCE0
E3B8E0
E7B8E0
F71FE0
3801C0
0003C0
000380
000380
000780
000780
000798
007FFC
00F01C
00E00C
ENDCHAR
STARTCHAR `se/s2e
ENCODING 4640
SWIDTH 314 0
DWIDTH 19 0
BBX 16 9 1 2
BITMAP
39CF
3CE7
39E7
79E7
71C7
E3EE
E3FC
FF80
7800
ENDCHAR
STARTCHAR `su/s2u
ENCODING 4641
SWIDTH 387 0
DWIDTH 23 0
BBX 21 9 1 2
BITMAP
39E700
3CE700
38E780
78E780
71E7F0
F1EF78
E3FE78
FF8038
780000
ENDCHAR
STARTCHAR `si/s2i
ENCODING 4642
SWIDTH 321 0
DWIDTH 19 0
BBX 18 14 0 -1
BITMAP
738E00
F38E00
F38E00
E79E00
F7FC00
3E7C00
003C00
003800
003800
007800
007000
007380
003FC0
0003C0
ENDCHAR
STARTCHAR `sa/s2a
ENCODING 4643
SWIDTH 278 0
DWIDTH 17 0
BBX 15 13 0 0
BITMAP
739E
F38E
F38E
E79E
F7FC
7E7C
003C
0038
0038
0078
0070
0070
0078
ENDCHAR
STARTCHAR `sE/s2E
ENCODING 4644
SWIDTH 327 0
DWIDTH 20 0
BBX 17 13 1 0
BITMAP
779E00
F38E00
F79E00
E79E00
FFFC00
7EFC00
003800
003800
007800
007E00
007780
007380
007F80
ENDCHAR
STARTCHAR `s/s2
ENCODING 4645
SWIDTH 363 0
DWIDTH 22 0
BBX 20 13 1 0
BITMAP
071CF0
071C70
071C70
0F1CF0
0FFFC0
1FE000
1C0000
3C0000
380000
700000
F00000
E00000
E00000
ENDCHAR
STARTCHAR `so/s2o
ENCODING 4646
SWIDTH 308 0
DWIDTH 18 0
BBX 16 13 1 0
BITMAP
71C7
F1C7
F1C7
E3C7
F3FC
7F00
0F00
1E00
1C00
3800
7800
7000
F000
ENDCHAR
STARTCHAR `sWa/s2Wa
ENCODING 4647
SWIDTH 278 0
DWIDTH 17 0
BBX 17 16 0 -2
BITMAP
739E00
F38E00
F39E00
E79E00
F7FC00
7FFC00
003800
003800
007800
007000
007000
007000
007B00
07FF80
0F0380
0E0180
ENDCHAR
STARTCHAR re
ENCODING 4648
SWIDTH 218 0
DWIDTH 13 0
BBX 10 13 1 0
BITMAP
0380
0380
0780
0700
0E00
1C00
3800
7000
F000
E080
E3C0
E7C0
7FC0
ENDCHAR
STARTCHAR ru
ENCODING 4649
SWIDTH 242 0
DWIDTH 15 0
BBX 12 12 1 0
BITMAP
0780
0700
0F00
3C00
7000
E000
E000
7FF0
1CF0
1C70
1C00
1C00
ENDCHAR
STARTCHAR ri
ENCODING 4650
SWIDTH 218 0
DWIDTH 13 0
BBX 11 12 1 0
BITMAP
01C0
01C0
01C0
0380
0F00
1E00
7800
F000
E1E0
E0E0
F3E0
7F80
ENDCHAR
STARTCHAR ra
ENCODING 4651
SWIDTH 284 0
DWIDTH 17 0
BBX 14 13 1 0
BITMAP
03C0
03C0
0380
0780
0F00
1C00
7800
7000
F3FC
E73C
E71C
FF00
7C00
ENDCHAR
STARTCHAR rE
ENCODING 4652
SWIDTH 266 0
DWIDTH 16 0
BBX 14 13 1 0
BITMAP
01C0
01C0
03C0
0780
0F00
1E00
3C00
7818
F1FC
E39C
E39C
E3F8
7F80
ENDCHAR
STARTCHAR r
ENCODING 4653
SWIDTH 218 0
DWIDTH 12 0
BBX 11 13 0 0
BITMAP
1FC0
39C0
70E0
7000
F000
F000
E000
E000
E000
E040
E1C0
FFC0
3DE0
ENDCHAR
STARTCHAR ro
ENCODING 4654
SWIDTH 266 0
DWIDTH 16 0
BBX 13 14 1 0
BITMAP
03F8
3F38
7338
73F8
F180
F000
E000
E000
E000
E000
E0C0
E1C0
FFC0
39E0
ENDCHAR
STARTCHAR rWa
ENCODING 4655
SWIDTH 284 0
DWIDTH 17 0
BBX 15 15 1 0
BITMAP
700E
381E
3FFE
03C0
0380
0780
0F00
1E00
3800
7000
F1FC
E71C
E71C
FF00
7C00
ENDCHAR
STARTCHAR se
ENCODING 4656
SWIDTH 218 0
DWIDTH 13 0
BBX 10 13 2 0
BITMAP
1E00
1E00
1F00
3380
F3C0
E3C0
E3C0
E3C0
E3C0
E3C0
E3C0
E3C0
F3C0
ENDCHAR
STARTCHAR su
ENCODING 4657
SWIDTH 296 0
DWIDTH 18 0
BBX 15 13 2 0
BITMAP
1C00
1C00
1F00
7780
E380
E380
E3C0
E3DE
E38E
E386
E380
E380
F3C0
ENDCHAR
STARTCHAR si
ENCODING 4658
SWIDTH 296 0
DWIDTH 15 0
BBX 15 14 0 -1
BITMAP
1C00
1C00
1F00
7780
E380
E380
E380
E380
E380
E380
E380
E39C
F3FE
001E
ENDCHAR
STARTCHAR sa
ENCODING 4659
SWIDTH 218 0
DWIDTH 13 0
BBX 10 13 2 0
BITMAP
1E00
1E00
1F00
3380
F3C0
E3C0
E3C0
E3C0
E3C0
F3C0
03C0
03C0
03C0
ENDCHAR
STARTCHAR sE
ENCODING 4660
SWIDTH 272 0
DWIDTH 16 0
BBX 14 13 2 0
BITMAP
1E00
1E00
1F00
7780
E380
E380
E380
E380
E380
E3F0
E3FC
E39C
F3FC
ENDCHAR
STARTCHAR s
ENCODING 4661
SWIDTH 218 0
DWIDTH 13 0
BBX 10 13 1 0
BITMAP
3C00
3C00
1F00
3380
F3C0
E3C0
E3C0
E3C0
E3C0
E3C0
E3C0
E3C0
F3C0
ENDCHAR
STARTCHAR so
ENCODING 4662
SWIDTH 218 0
DWIDTH 13 0
BBX 10 13 1 0
BITMAP
1E00
1E00
1F00
3380
73C0
E3C0
E3C0
E3C0
E3C0
E3C0
E000
E000
F000
ENDCHAR
STARTCHAR sWa
ENCODING 4663
SWIDTH 308 0
DWIDTH 18 0
BBX 17 15 1 -2
BITMAP
070000
070000
078000
0FC000
38E000
38E000
38E000
38E000
38E000
38E000
00E000
00E000
1FFF80
3C0780
380380
ENDCHAR
STARTCHAR xe
ENCODING 4664
SWIDTH 242 0
DWIDTH 15 0
BBX 14 15 1 0
BITMAP
0038
F0F8
FFFC
E718
07C0
0FE0
1CE0
3CE0
3CE0
3CE0
3CE0
3CE0
3CE0
3CE0
3CF0
ENDCHAR
STARTCHAR xu
ENCODING 4665
SWIDTH 308 0
DWIDTH 18 0
BBX 16 15 1 0
BITMAP
0030
E1F0
FFF8
E730
0780
0FC0
19E0
39E0
39E0
39FF
39E7
39E7
39E0
39E0
3DE0
ENDCHAR
STARTCHAR xi
ENCODING 4666
SWIDTH 321 0
DWIDTH 19 0
BBX 17 16 1 -1
BITMAP
003800
E1F800
FF7800
E71000
078000
0FC000
19E000
39E000
39E000
39E000
39E000
39E000
39E100
39E700
3DFF80
000780
ENDCHAR
STARTCHAR xa
ENCODING 4667
SWIDTH 242 0
DWIDTH 15 0
BBX 14 15 1 0
BITMAP
0038
F0F8
FFFC
E718
0780
0FE0
18E0
38E0
38E0
38E0
38E0
3CE0
00E0
00E0
00F0
ENDCHAR
STARTCHAR xE
ENCODING 4668
SWIDTH 284 0
DWIDTH 17 0
BBX 15 15 1 0
BITMAP
0038
E1F0
FFF8
E710
0780
0FC0
19E0
39E0
39E0
39E0
39E0
39F8
39EE
39EE
3DFE
ENDCHAR
STARTCHAR x
ENCODING 4669
SWIDTH 272 0
DWIDTH 16 0
BBX 14 15 1 0
BITMAP
0038
F0F8
FFFC
E388
01E0
03F0
0738
0E38
0E38
0E38
0E38
0E38
0E38
0E38
0F38
ENDCHAR
STARTCHAR xo
ENCODING 4670
SWIDTH 242 0
DWIDTH 15 0
BBX 14 15 1 0
BITMAP
0038
F0F8
FFFC
E718
07C0
0FE0
1CE0
3CE0
3CE0
3CE0
3CE0
3CF0
3C00
3C00
3C00
ENDCHAR
STARTCHAR xWa
ENCODING 4671
SWIDTH 308 0
DWIDTH 18 0
BBX 17 17 1 -2
BITMAP
E03800
F03800
FFF800
070000
078000
0FC000
19E000
38E000
38E000
38E000
38E000
3CE000
00E000
00E000
1FFF80
3C0780
380380
ENDCHAR
STARTCHAR qe
ENCODING 4672
SWIDTH 260 0
DWIDTH 16 0
BBX 15 13 0 0
BITMAP
03C0
03C0
03C0
0FFC
7FDE
F39E
F39E
FFFC
7F80
0780
0780
0780
0780
ENDCHAR
STARTCHAR qu
ENCODING 4673
SWIDTH 260 0
DWIDTH 16 0
BBX 15 13 0 0
BITMAP
03C0
03C0
03C0
0FFC
7FDE
F39E
F39E
FFFC
7F98
07F8
07FC
079C
0780
ENDCHAR
STARTCHAR qi
ENCODING 4674
SWIDTH 260 0
DWIDTH 16 0
BBX 15 14 0 -1
BITMAP
03C0
03C0
03C0
0FFC
3FDE
F39E
F39E
FFFC
7F80
0780
0788
07B8
07FC
03BC
ENDCHAR
STARTCHAR qa
ENCODING 4675
SWIDTH 284 0
DWIDTH 17 0
BBX 16 14 0 -1
BITMAP
01E0
00E0
00FC
0FFF
3DEF
79EF
79FF
7FF8
01C0
01C0
0F80
7C00
F000
E000
ENDCHAR
STARTCHAR qE
ENCODING 4676
SWIDTH 260 0
DWIDTH 16 0
BBX 15 13 0 0
BITMAP
03C0
03C0
03C0
0FFC
7FDE
F39E
F39E
FFFC
7F80
07F0
07B8
07BC
07F8
ENDCHAR
STARTCHAR q
ENCODING 4677
SWIDTH 260 0
DWIDTH 16 0
BBX 15 15 0 0
BITMAP
1E00
1F00
1FC0
03C0
03C0
0FFC
7FDE
F39E
F39E
FFFC
7F80
0780
0780
0780
0780
ENDCHAR
STARTCHAR qo
ENCODING 4678
SWIDTH 272 0
DWIDTH 16 0
BBX 15 13 0 0
BITMAP
03E0
0670
0E70
0F70
07E0
0FFC
7F9E
F79E
F7BC
FFF0
0700
0700
0780
ENDCHAR
STARTCHAR qWe
ENCODING 4680
SWIDTH 314 0
DWIDTH 19 0
BBX 17 13 0 0
BITMAP
038000
038000
038000
0FF800
7FBC00
F79C00
F7BC00
FFF800
7FBF80
07F380
077380
077F00
071E00
ENDCHAR
STARTCHAR qWi
ENCODING 4682
SWIDTH 405 0
DWIDTH 24 0
BBX 23 13 0 0
BITMAP
038000
038000
038000
0FF8E0
7FBCE0
F7BFE0
F7BDE0
FFF81E
7F801E
070006
070000
070000
070000
ENDCHAR
STARTCHAR qWa
ENCODING 4683
SWIDTH 260 0
DWIDTH 16 0
BBX 15 15 0 -1
BITMAP
03C0
03C0
03F8
1FFC
7B9E
F39E
F39E
F7FC
FFF0
0780
0780
3FF8
3878
7870
20F0
ENDCHAR
STARTCHAR qWE
ENCODING 4684
SWIDTH 260 0
DWIDTH 16 0
BBX 15 16 0 -3
BITMAP
03C0
01C0
01F8
1FFC
3BDE
7BDE
F3DE
7FFC
3F80
03F8
03BC
07B8
3FF0
F000
F000
E000
ENDCHAR
STARTCHAR qW
ENCODING 4685
SWIDTH 381 0
DWIDTH 23 0
BBX 22 13 0 0
BITMAP
038000
03C000
0380E0
0FF8E0
7FBCE0
F39FE0
F39C3C
FFF81C
7F8008
078000
070000
070000
078000
ENDCHAR
STARTCHAR Qe
ENCODING 4688
SWIDTH 260 0
DWIDTH 16 0
BBX 16 15 0 0
BITMAP
200E
7BFE
7FCF
63C0
03C0
0FF8
3FDE
F39E
F39E
FFFC
7F80
0780
0780
0700
0780
ENDCHAR
STARTCHAR Qu
ENCODING 4689
SWIDTH 260 0
DWIDTH 16 0
BBX 16 15 0 0
BITMAP
200E
7BFE
7FCF
63C0
03C0
0FF8
3FDE
F39E
F39E
FFFC
7F88
07B8
07FC
071C
0780
ENDCHAR
STARTCHAR Qi
ENCODING 4690
SWIDTH 260 0
DWIDTH 16 0
BBX 16 16 0 -1
BITMAP
300E
7BFE
3FCF
73C0
03C0
03F8
3FFE
F39E
F39E
F3FC
7FC0
0780
0788
0738
07F8
03BC
ENDCHAR
STARTCHAR Qa
ENCODING 4691
SWIDTH 284 0
DWIDTH 17 0
BBX 17 16 0 -1
BITMAP
300700
7BFF00
3DE780
70E000
00E000
07FE00
3FEF00
38EF80
79EF00
7FFC00
1DE000
01C000
078000
7E0000
F00000
E00000
ENDCHAR
STARTCHAR QE
ENCODING 4692
SWIDTH 260 0
DWIDTH 16 0
BBX 16 15 0 0
BITMAP
200E
7BFE
7FCF
63C0
03C0
0FF8
3FDE
F39E
F39E
FFFC
7F80
07C0
07F8
073C
07F8
ENDCHAR
STARTCHAR Q
ENCODING 4693
SWIDTH 260 0
DWIDTH 16 0
BBX 16 17 0 0
BITMAP
E00C
F03C
7FFC
079E
07E0
00E0
00E0
01FE
1FEF
39EF
79CF
7FFE
3FC0
01C0
01C0
03C0
03C0
ENDCHAR
STARTCHAR Qo
ENCODING 4694
SWIDTH 272 0
DWIDTH 16 0
BBX 15 16 0 0
BITMAP
3C1C
1C1C
1C1C
37F8
0E70
0E70
0F70
07E0
0FFC
7F9E
F79E
F7BC
FFF0
0700
0700
0780
ENDCHAR
STARTCHAR QWe
ENCODING 4696
SWIDTH 314 0
DWIDTH 19 0
BBX 17 15 0 0
BITMAP
201C00
7FFE00
7F8E00
638000
038000
0FF800
7FBC00
F79C00
F7BC00
FFF800
7F9F80
07F380
077380
077F00
071E00
ENDCHAR
STARTCHAR QWi
ENCODING 4698
SWIDTH 405 0
DWIDTH 24 0
BBX 23 15 0 0
BITMAP
201C00
7FFE00
7F8E00
638000
038000
0FF8E0
7FBCE0
F7BFE0
F7BCE0
FFF8FE
7F801E
070006
070000
070000
070000
ENDCHAR
STARTCHAR QWa
ENCODING 4699
SWIDTH 260 0
DWIDTH 16 0
BBX 15 17 0 -1
BITMAP
300E
7BFE
3FCE
73C0
03C0
07F8
3FDE
739E
F39E
F3BC
FFF8
3F80
0780
3FF0
3878
7870
20F0
ENDCHAR
STARTCHAR QWE
ENCODING 4700
SWIDTH 260 0
DWIDTH 16 0
BBX 16 19 0 -3
BITMAP
100E
3DFE
3FCF
31C0
01C0
01F8
1FFC
39DE
7BDF
F3DE
7BFC
7FC0
03F8
039C
039C
0FF0
F000
F000
E000
ENDCHAR
STARTCHAR QW
ENCODING 4701
SWIDTH 381 0
DWIDTH 23 0
BBX 22 15 0 0
BITMAP
200E00
7FFE00
7FCE00
638000
0380E0
0FF8E0
7FBCE0
F39FE0
F39E3C
FFF81C
7F8008
078000
078000
070000
078000
ENDCHAR
STARTCHAR be
ENCODING 4704
SWIDTH 200 0
DWIDTH 12 0
BBX 10 13 1 0
BITMAP
1F00
7380
E3C0
E3C0
E3C0
E3C0
E3C0
E3C0
E3C0
E3C0
E3C0
E3C0
E3C0
ENDCHAR
STARTCHAR bu
ENCODING 4705
SWIDTH 284 0
DWIDTH 17 0
BBX 15 13 1 0
BITMAP
3F00
7380
E380
E380
E38C
E39C
E3FE
E38E
E380
E380
E380
E380
F3C0
ENDCHAR
STARTCHAR bi
ENCODING 4706
SWIDTH 284 0
DWIDTH 17 0
BBX 15 14 1 -1
BITMAP
3F00
7780
E380
E380
E380
E380
E380
E380
E380
E380
E384
E39C
E3FE
001E
ENDCHAR
STARTCHAR ba
ENCODING 4707
SWIDTH 200 0
DWIDTH 12 0
BBX 10 13 1 0
BITMAP
1F00
7380
E3C0
E3C0
E3C0
E3C0
E3C0
E3C0
E3C0
F3C0
03C0
03C0
03C0
ENDCHAR
STARTCHAR bE
ENCODING 4708
SWIDTH 266 0
DWIDTH 16 0
BBX 14 13 1 0
BITMAP
3F00
7780
E380
E380
E380
E380
E380
E380
E380
E3F0
E39C
E39C
E3FC
ENDCHAR
STARTCHAR b
ENCODING 4709
SWIDTH 290 0
DWIDTH 17 0
BBX 15 13 1 0
BITMAP
00F8
019C
039E
039E
079E
F79E
F79E
E79E
079E
079E
079E
079E
039E
ENDCHAR
STARTCHAR bo
ENCODING 4710
SWIDTH 200 0
DWIDTH 12 0
BBX 10 13 1 0
BITMAP
1F00
7380
E3C0
E3C0
E3C0
E3C0
E3C0
E3C0
E3C0
E3C0
E000
E000
E000
ENDCHAR
STARTCHAR bWa
ENCODING 4711
SWIDTH 296 0
DWIDTH 18 0
BBX 14 15 1 -2
BITMAP
3F00
7700
E780
E780
E780
E780
E780
E780
E780
E780
0780
0780
7FFC
701C
700C
ENDCHAR
STARTCHAR ve
ENCODING 4712
SWIDTH 242 0
DWIDTH 15 0
BBX 14 15 1 0
BITMAP
0038
F0F8
FFFC
E018
07C0
0FE0
1CE0
3CE0
3CE0
3CE0
3CE0
3CE0
3CE0
3CE0
3CF0
ENDCHAR
STARTCHAR vu
ENCODING 4713
SWIDTH 308 0
DWIDTH 18 0
BBX 16 15 1 0
BITMAP
0030
E1F0
FFF8
E030
0780
0FC0
19E0
39E0
39E0
39FF
39E7
39E7
39E0
39E0
3DE0
ENDCHAR
STARTCHAR vi
ENCODING 4714
SWIDTH 321 0
DWIDTH 19 0
BBX 17 16 1 -1
BITMAP
003800
E0F800
FF7800
E01000
078000
0FC000
19E000
39E000
39E000
39E000
39E000
39E000
39E100
39E700
3DFF80
000780
ENDCHAR
STARTCHAR va
ENCODING 4715
SWIDTH 242 0
DWIDTH 15 0
BBX 14 15 1 0
BITMAP
0038
F0F8
FFFC
E018
0780
0FE0
18E0
38E0
38E0
38E0
38E0
3CE0
00E0
00E0
00F0
ENDCHAR
STARTCHAR vE
ENCODING 4716
SWIDTH 284 0
DWIDTH 17 0
BBX 15 15 1 0
BITMAP
0038
E0F0
FFF8
E010
0780
0FC0
19E0
39E0
39E0
39E0
39E0
39F8
39EE
39EE
3DFE
ENDCHAR
STARTCHAR v
ENCODING 4717
SWIDTH 308 0
DWIDTH 18 0
BBX 16 15 1 0
BITMAP
0006
1E3E
1FFF
1C06
0070
01FC
019C
039C
039C
7F9C
F79C
E79C
479C
079C
03DE
ENDCHAR
STARTCHAR vo
ENCODING 4718
SWIDTH 242 0
DWIDTH 15 0
BBX 14 15 1 0
BITMAP
0038
F0F8
FFFC
E018
07C0
0FE0
1CE0
3CE0
3CE0
3CE0
3CE0
3CF0
3C00
3C00
3C00
ENDCHAR
STARTCHAR vWa
ENCODING 4719
SWIDTH 308 0
DWIDTH 18 0
BBX 17 18 1 -2
BITMAP
E03800
F03800
FFF800
000000
000000
0FC000
1DE000
38E000
38E000
38E000
38E000
38E000
38E000
00E000
00E600
1FFF00
3C0F00
380200
ENDCHAR
STARTCHAR te
ENCODING 4720
SWIDTH 272 0
DWIDTH 16 0
BBX 15 13 0 0
BITMAP
03C0
03C0
03C0
0380
7FFE
F38E
E38E
0380
0780
0780
0780
0700
0780
ENDCHAR
STARTCHAR tu
ENCODING 4721
SWIDTH 272 0
DWIDTH 16 0
BBX 15 13 0 0
BITMAP
03C0
03C0
03C0
0380
7FFE
F38E
E38E
0380
07B8
07FC
07BC
0700
0780
ENDCHAR
STARTCHAR ti
ENCODING 4722
SWIDTH 272 0
DWIDTH 16 0
BBX 15 14 0 -1
BITMAP
03C0
03C0
03C0
0380
0FFE
F39E
E38E
4380
0780
0780
0788
0738
07F8
0338
ENDCHAR
STARTCHAR ta
ENCODING 4723
SWIDTH 302 0
DWIDTH 18 0
BBX 16 14 1 0
BITMAP
01C0
01E0
01E0
01C0
07FF
39CF
39C7
31C0
01C0
01C0
0380
FE00
F000
E000
ENDCHAR
STARTCHAR tE
ENCODING 4724
SWIDTH 272 0
DWIDTH 16 0
BBX 15 13 0 0
BITMAP
03C0
03C0
03C0
0380
7FFE
F38E
E38E
0380
0780
07E0
07F8
0738
07F8
ENDCHAR
STARTCHAR t
ENCODING 4725
SWIDTH 272 0
DWIDTH 16 0
BBX 15 15 0 0
BITMAP
1800
1C00
1F80
03C0
03C0
0380
7FFE
F38E
E38E
0380
0780
0780
0780
0700
0780
ENDCHAR
STARTCHAR to
ENCODING 4726
SWIDTH 284 0
DWIDTH 17 0
BBX 15 13 0 0
BITMAP
03E0
0770
0E70
0770
03E0
0380
FFFE
F79E
E78E
4780
0780
0780
0780
ENDCHAR
STARTCHAR tWa
ENCODING 4727
SWIDTH 272 0
DWIDTH 16 0
BBX 15 14 0 -1
BITMAP
03C0
03C0
03C0
0380
0FFE
F39E
E38E
4380
0780
0780
0780
7FF8
7078
F038
ENDCHAR
STARTCHAR ce
ENCODING 4728
SWIDTH 284 0
DWIDTH 17 0
BBX 16 14 1 0
BITMAP
200E
7BFE
7FCF
63C0
03C0
3FFE
738E
F386
6380
0380
0380
0780
0780
0780
ENDCHAR
STARTCHAR cu
ENCODING 4729
SWIDTH 284 0
DWIDTH 18 0
BBX 16 14 1 0
BITMAP
200E
7BFE
7FCF
63C0
03C0
3FFE
738E
F386
6380
039C
03FC
079E
0780
0780
ENDCHAR
STARTCHAR ci
ENCODING 4730
SWIDTH 284 0
DWIDTH 17 0
BBX 15 15 1 -1
BITMAP
301C
7BFC
7F9E
7380
0380
7FFE
F39E
E38E
4780
0780
0780
0700
071C
07FC
001E
ENDCHAR
STARTCHAR ca
ENCODING 4731
SWIDTH 308 0
DWIDTH 18 0
BBX 17 15 1 -1
BITMAP
300700
7BFF00
3DE780
70E000
00E000
1FFF80
3CE780
38E380
31E000
01E000
01C000
0F8000
F80000
F00000
E00000
ENDCHAR
STARTCHAR cE
ENCODING 4732
SWIDTH 284 0
DWIDTH 17 0
BBX 16 14 1 0
BITMAP
200E
7BFE
7FCF
63C0
03C0
3FFE
738E
F386
6380
0380
03E0
07BC
079C
07FC
ENDCHAR
STARTCHAR c
ENCODING 4733
SWIDTH 308 0
DWIDTH 18 0
BBX 16 16 1 0
BITMAP
E018
E038
FFF8
073C
07C0
01C0
01C0
01C6
3FCF
39C7
71C2
21C0
01C0
03C0
0380
03C0
ENDCHAR
STARTCHAR co
ENCODING 4734
SWIDTH 284 0
DWIDTH 17 0
BBX 15 16 1 0
BITMAP
3C1C
3C1C
3C3C
37F8
0E70
0E70
0F60
07C0
038C
7FFE
F39E
E78E
C780
0780
0780
0780
ENDCHAR
STARTCHAR cWa
ENCODING 4735
SWIDTH 284 0
DWIDTH 17 0
BBX 15 15 1 -1
BITMAP
301C
7BFC
7F9E
7380
0380
7FFE
F39E
E38E
4780
0780
0780
0700
7FF8
F038
E03C
ENDCHAR
STARTCHAR `he/h2e
ENCODING 4736
SWIDTH 230 0
DWIDTH 14 0
BBX 13 13 1 0
BITMAP
01C0
01C0
01C0
FFF0
F1F8
E038
0078
0078
0070
0070
00F0
00F0
0070
ENDCHAR
STARTCHAR `hu/h2u
ENCODING 4737
SWIDTH 308 0
DWIDTH 18 0
BBX 17 13 1 0
BITMAP
03C000
03C000
03C000
FFF000
F1F800
E03800
007800
007F00
007780
007380
00F000
00F000
00F000
ENDCHAR
STARTCHAR `hi/h2i
ENCODING 4738
SWIDTH 308 0
DWIDTH 18 0
BBX 17 14 1 -1
BITMAP
03C000
03C000
03C000
FBF000
F1F800
E03800
007800
007000
007000
007000
00F000
00F700
00FF00
000780
ENDCHAR
STARTCHAR `ha/h2a
ENCODING 4739
SWIDTH 230 0
DWIDTH 14 0
BBX 12 15 1 -1
BITMAP
01C0
01C0
01C0
3FE0
71F0
7070
6070
0070
0070
0070
00E0
1FC0
FC00
F000
E000
ENDCHAR
STARTCHAR `hE/h2E
ENCODING 4740
SWIDTH 296 0
DWIDTH 18 0
BBX 17 13 1 0
BITMAP
01C000
01C000
01C000
FFF000
F1F800
E03800
003800
007800
007800
007E00
007780
007380
007F80
ENDCHAR
STARTCHAR `h/h2
ENCODING 4741
SWIDTH 218 0
DWIDTH 13 0
BBX 12 13 1 0
BITMAP
0380
0380
3F80
73E0
E3F0
E070
0070
00F0
00E0
00E0
00E0
00E0
00E0
ENDCHAR
STARTCHAR `ho/h2o
ENCODING 4742
SWIDTH 327 0
DWIDTH 20 0
BBX 17 13 1 0
BITMAP
007F80
01F980
03BB80
7F9F80
F70000
E70000
47B000
03F800
007800
007000
007000
007000
007000
ENDCHAR
STARTCHAR hWe
ENCODING 4744
SWIDTH 363 0
DWIDTH 22 0
BBX 21 13 1 0
BITMAP
038000
038000
038000
FFF000
E1F800
E07BF0
007F78
007738
00F7F8
00F3F0
00E000
00E000
00F000
ENDCHAR
STARTCHAR hWi
ENCODING 4746
SWIDTH 375 0
DWIDTH 22 0
BBX 21 13 1 0
BITMAP
038000
038000
038000
FFE700
E3F780
E07F80
007700
00F7F0
00F078
00E038
00E000
00E000
00E000
ENDCHAR
STARTCHAR hWa
ENCODING 4747
SWIDTH 260 0
DWIDTH 16 0
BBX 15 15 1 -2
BITMAP
03C0
03C0
03C0
FFF0
F1F8
E078
0070
0070
00F0
00F0
00F0
1FFE
1C1E
381C
101C
ENDCHAR
STARTCHAR hWE
ENCODING 4748
SWIDTH 284 0
DWIDTH 17 0
BBX 16 15 1 -2
BITMAP
0380
0380
0380
F7F0
E1F0
E070
0070
00F0
00FE
00E7
00E7
07FE
1C00
1C00
3800
ENDCHAR
STARTCHAR hW
ENCODING 4749
SWIDTH 339 0
DWIDTH 20 0
BBX 19 13 1 0
BITMAP
038000
038000
038700
FFE700
E3F700
E07F80
0071E0
00F0E0
00F040
00E000
00E000
00E000
00E000
ENDCHAR
STARTCHAR ne
ENCODING 4752
SWIDTH 151 0
DWIDTH 9 0
BBX 6 13 1 0
BITMAP
F0
F0
E0
E0
FC
1C
1C
3C
38
78
70
70
70
ENDCHAR
STARTCHAR nu
ENCODING 4753
SWIDTH 218 0
DWIDTH 13 0
BBX 11 13 1 0
BITMAP
F000
F000
F000
E000
FC00
1E00
1C00
1DE0
3DE0
38E0
7800
7000
7800
ENDCHAR
STARTCHAR ni
ENCODING 4754
SWIDTH 200 0
DWIDTH 12 0
BBX 10 14 1 -1
BITMAP
F000
F000
F000
E000
FC00
1E00
1C00
1C00
3C00
3800
7800
7380
7F80
03C0
ENDCHAR
STARTCHAR na
ENCODING 4755
SWIDTH 212 0
DWIDTH 13 0
BBX 10 12 1 0
BITMAP
3FC0
71C0
E0C0
E000
E000
E000
FF00
0F00
0F00
0E00
0E00
0E00
ENDCHAR
STARTCHAR nE
ENCODING 4756
SWIDTH 182 0
DWIDTH 11 0
BBX 9 13 1 0
BITMAP
F000
F000
F000
E000
FC00
1E00
1C00
1C00
3C00
3E00
7F80
7B80
7F80
ENDCHAR
STARTCHAR n
ENCODING 4757
SWIDTH 212 0
DWIDTH 13 0
BBX 11 13 1 0
BITMAP
FF80
F380
E380
0780
0780
01E0
01E0
01C0
03C0
0780
0700
0F00
0F00
ENDCHAR
STARTCHAR no
ENCODING 4758
SWIDTH 242 0
DWIDTH 15 0
BBX 12 13 1 0
BITMAP
0FF0
3F70
7770
E7E0
E000
E000
E600
FF00
0F00
0E00
0E00
0E00
0E00
ENDCHAR
STARTCHAR nWa
ENCODING 4759
SWIDTH 254 0
DWIDTH 15 0
BBX 14 15 0 -2
BITMAP
1FF0
38F0
7870
7000
7000
7000
7F80
0380
0380
0780
0780
0798
FFFC
F01C
E00C
ENDCHAR
STARTCHAR Ne
ENCODING 4760
SWIDTH 266 0
DWIDTH 16 0
BBX 15 14 1 0
BITMAP
201C
F7FC
FB9E
E380
0780
07E0
0070
00F0
00F0
00E0
01E0
01C0
03C0
03C0
ENDCHAR
STARTCHAR Nu
ENCODING 4761
SWIDTH 284 0
DWIDTH 17 0
BBX 16 14 0 0
BITMAP
4038
F7F8
FFBC
E780
0700
07E0
00F0
00E0
00FF
01EF
01C7
03C0
0380
03C0
ENDCHAR
STARTCHAR Ni
ENCODING 4762
SWIDTH 272 0
DWIDTH 16 0
BBX 15 15 0 -1
BITMAP
4038
F7FC
FFBC
E780
0700
07E0
00F0
00E0
00E0
01E0
01C0
03C0
039C
03FC
001E
ENDCHAR
STARTCHAR Na
ENCODING 4763
SWIDTH 266 0
DWIDTH 16 0
BBX 15 15 1 0
BITMAP
201C
71FC
7F9E
E380
0FF8
1C38
3C3C
3C00
3C00
1FC0
01C0
01C0
03C0
03C0
03C0
ENDCHAR
STARTCHAR NE
ENCODING 4764
SWIDTH 254 0
DWIDTH 15 0
BBX 15 15 0 0
BITMAP
201C
75FC
7FDE
E380
0380
0780
03F0
0070
0070
00F0
00E0
01F8
01DE
01DE
01FC
ENDCHAR
STARTCHAR N
ENCODING 4765
SWIDTH 266 0
DWIDTH 16 0
BBX 13 15 1 0
BITMAP
E038
F078
FFF8
3F00
3BC0
79C0
0380
03E0
00F0
00E0
01E0
01C0
0380
0780
0780
ENDCHAR
STARTCHAR No
ENCODING 4766
SWIDTH 284 0
DWIDTH 17 0
BBX 15 15 0 0
BITMAP
2038
71FC
7FBC
E780
0FFE
1CEE
3CEE
3C7C
3C00
1FC0
01C0
03C0
03C0
0380
0380
ENDCHAR
STARTCHAR NWa
ENCODING 4767
SWIDTH 266 0
DWIDTH 16 0
BBX 14 18 1 -2
BITMAP
E01C
F03C
FFF8
0780
0FE0
3CF0
3878
7810
7800
3F80
0380
0380
0380
0380
0798
7FFC
701C
F00C
ENDCHAR
STARTCHAR e/a
ENCODING 4768
SWIDTH 218 0
DWIDTH 13 0
BBX 11 13 1 0
BITMAP
7800
7800
7800
3E00
1C00
1C00
3F80
71C0
71C0
F1C0
E1E0
E1E0
E0E0
ENDCHAR
STARTCHAR u/U
ENCODING 4769
SWIDTH 278 0
DWIDTH 17 0
BBX 15 13 1 0
BITMAP
7800
7800
3800
3E00
0E00
1C00
3BC0
79C0
71FE
F1EE
E0EE
E0E0
E0F0
ENDCHAR
STARTCHAR i
ENCODING 4770
SWIDTH 308 0
DWIDTH 18 0
BBX 17 14 1 -1
BITMAP
780000
780000
780000
0E0000
1C0000
1E0000
3B8000
71C000
71C000
F1C000
E1E000
E1E700
E0FF00
000780
ENDCHAR
STARTCHAR a/A
ENCODING 4771
SWIDTH 218 0
DWIDTH 13 0
BBX 11 13 1 0
BITMAP
7800
7800
7800
3E00
1C00
3800
7780
F1C0
E1C0
E1C0
E1E0
01E0
00E0
ENDCHAR
STARTCHAR E
ENCODING 4772
SWIDTH 296 0
DWIDTH 18 0
BBX 16 13 1 0
BITMAP
7800
7800
7800
3E00
1E00
1C00
3BC0
79C0
71E0
F1FC
F0EF
F0E7
F0FE
ENDCHAR
STARTCHAR I
ENCODING 4773
SWIDTH 218 0
DWIDTH 13 0
BBX 12 14 1 0
BITMAP
3E00
1E00
3F00
1E00
1F00
0E00
1E00
3DE0
39E0
70E0
F0E0
F0F0
F0F0
F0F0
ENDCHAR
STARTCHAR o/O
ENCODING 4774
SWIDTH 218 0
DWIDTH 13 0
BBX 11 13 1 0
BITMAP
7800
7800
7800
3E00
1C00
1C00
3F80
71C0
71C0
F1E0
E0E0
E000
E000
ENDCHAR
STARTCHAR e3
ENCODING 4775
SWIDTH 225 0
DWIDTH 14 0
BBX 14 15 1 0
BITMAP
E0C0
61C0
FFC0
0E00
0E00
0380
0700
0F00
1FF0
1C70
3C70
3878
7878
7878
7838
ENDCHAR
STARTCHAR ke
ENCODING 4776
SWIDTH 212 0
DWIDTH 13 0
BBX 11 14 1 0
BITMAP
F000
7000
F000
FF80
F9C0
71E0
71E0
F1E0
F1E0
F1E0
F1C0
71C0
71C0
71E0
ENDCHAR
STARTCHAR ku
ENCODING 4777
SWIDTH 272 0
DWIDTH 16 0
BBX 15 14 0 0
BITMAP
F000
F000
F000
FF80
FBC0
71C0
71C0
F1DE
F1FE
F1CE
F3C0
F3C0
F3C0
71C0
ENDCHAR
STARTCHAR ki
ENCODING 4778
SWIDTH 290 0
DWIDTH 17 0
BBX 16 15 1 -1
BITMAP
F000
F000
F000
FF80
FBC0
71C0
71C0
F1C0
F1C0
F1C0
F3C0
F3C0
F3CE
71FE
000F
ENDCHAR
STARTCHAR ka
ENCODING 4779
SWIDTH 212 0
DWIDTH 13 0
BBX 11 14 1 0
BITMAP
F000
7000
F000
FF80
F9C0
71E0
71E0
71E0
71E0
71E0
71C0
01C0
01C0
01E0
ENDCHAR
STARTCHAR kE
ENCODING 4780
SWIDTH 266 0
DWIDTH 16 0
BBX 14 14 1 0
BITMAP
F000
F000
F000
FF80
FBC0
71C0
71C0
F1C0
F1C0
F1C0
F1F0
F1FC
F1DC
71FC
ENDCHAR
STARTCHAR k
ENCODING 4781
SWIDTH 212 0
DWIDTH 13 0
BBX 11 14 1 0
BITMAP
F000
7000
F000
FF80
F9C0
71E0
71E0
7DE0
39E0
79E0
71C0
71C0
71C0
71E0
ENDCHAR
STARTCHAR ko
ENCODING 4782
SWIDTH 212 0
DWIDTH 13 0
BBX 11 14 1 0
BITMAP
F000
7000
F000
FF80
F9C0
71E0
71E0
F1E0
F1C0
F1C0
F1E0
7000
7000
7000
ENDCHAR
STARTCHAR kWe
ENCODING 4784
SWIDTH 375 0
DWIDTH 22 0
BBX 20 13 1 0
BITMAP
E00000
F00000
E70000
FFC000
38E000
78E000
78FFE0
70EEF0
78EE70
78EFF0
78E7E0
78E000
78F000
ENDCHAR
STARTCHAR kWi
ENCODING 4786
SWIDTH 387 0
DWIDTH 23 0
BBX 21 13 1 0
BITMAP
E00000
E00000
E78000
FFC000
38E180
78E380
78FF80
70E780
78E7F8
78E038
78E018
78E000
78F000
ENDCHAR
STARTCHAR kWa
ENCODING 4787
SWIDTH 254 0
DWIDTH 15 0
BBX 13 14 1 0
BITMAP
E000
F000
E700
FF80
39C0
79E0
79E0
71E0
71E0
01E0
1E38
3C38
3838
3038
ENDCHAR
STARTCHAR kWE
ENCODING 4788
SWIDTH 296 0
DWIDTH 18 0
BBX 15 15 1 -1
BITMAP
E000
F000
E700
FF80
39C0
39E0
79E0
79E0
71FC
71EE
01EE
07FC
3C00
3C00
3800
ENDCHAR
STARTCHAR kW
ENCODING 4789
SWIDTH 339 0
DWIDTH 20 0
BBX 18 13 1 0
BITMAP
E00000
E01E00
EF1E00
FFDE00
39FF80
78E3C0
70E1C0
70E000
70E000
70E000
70E000
70E000
70E000
ENDCHAR
STARTCHAR Ke
ENCODING 4792
SWIDTH 272 0
DWIDTH 18 0
BBX 16 15 0 0
BITMAP
200E
71FE
7FDE
E380
03FE
03CF
01CF
03CF
03CF
03CF
03CF
03CF
03CF
03CF
03CF
ENDCHAR
STARTCHAR Ku
ENCODING 4793
SWIDTH 339 0
DWIDTH 20 0
BBX 20 15 0 0
BITMAP
201C00
71FC00
7FDE00
E38000
03FC00
03CE00
018F00
038F00
038FF0
038FF0
038E70
038E00
038E00
038E00
03CF00
ENDCHAR
STARTCHAR Ki
ENCODING 4794
SWIDTH 357 0
DWIDTH 21 0
BBX 21 16 0 -1
BITMAP
201C00
71FC00
7F9E00
E38000
03FC00
03CE00
018E00
038E00
038E00
038E00
038E00
038E00
038E10
038E70
03CFF0
000078
ENDCHAR
STARTCHAR Ka
ENCODING 4795
SWIDTH 272 0
DWIDTH 16 0
BBX 16 15 0 0
BITMAP
200E
71FE
7FDE
E380
03FE
03CF
01CF
03CF
03CF
03CF
03CF
03CF
000F
000F
000F
ENDCHAR
STARTCHAR KE
ENCODING 4796
SWIDTH 327 0
DWIDTH 20 0
BBX 19 15 0 0
BITMAP
201C00
71FC00
7F9E00
E38000
07FC00
03CE00
018E00
038E00
038E00
078E00
078E00
038F80
038FE0
038EE0
038FE0
ENDCHAR
STARTCHAR K
ENCODING 4797
SWIDTH 272 0
DWIDTH 16 0
BBX 16 15 0 0
BITMAP
200E
71FE
7FDE
E380
03FE
03CF
01CF
03CF
03EF
01CF
01CF
01CF
03CF
03CF
03CF
ENDCHAR
STARTCHAR Ko
ENCODING 4798
SWIDTH 272 0
DWIDTH 16 0
BBX 16 15 0 0
BITMAP
200E
71FE
7FDE
E380
03FE
03CF
01CF
03CF
03CF
03CF
03CF
03CF
03C0
03C0
03C0
ENDCHAR
STARTCHAR KWe
ENCODING 4800
SWIDTH 375 0
DWIDTH 24 0
BBX 23 16 0 0
BITMAP
20E000
73E000
7FE000
EF0000
0EF800
0FDC00
038E00
038E00
078FFE
070EEE
078ECE
078EFE
078E38
078E00
078E00
078E00
ENDCHAR
STARTCHAR KWi
ENCODING 4802
SWIDTH 387 0
DWIDTH 25 0
BBX 24 15 0 0
BITMAP
406000
F3E000
FEE000
EE0000
0EE000
0FF800
071C00
0E1C70
0E1FF0
0E1CF0
0E1CFF
0E1C07
0E1C03
0E1C00
0E1E00
ENDCHAR
STARTCHAR KWa
ENCODING 4803
SWIDTH 254 0
DWIDTH 19 0
BBX 18 15 0 0
BITMAP
606000
F3E000
FEE000
EE0000
0EF800
0F9C00
039E00
038E00
078E00
070E00
000E00
007FC0
0383C0
0383C0
070380
ENDCHAR
STARTCHAR KWE
ENCODING 4804
SWIDTH 254 0
DWIDTH 19 0
BBX 19 15 0 0
BITMAP
606000
F3E000
FFF000
EF0000
0EF800
0FDC00
038E00
038E00
038FE0
078EE0
000FE0
007F80
03C000
038000
070000
ENDCHAR
STARTCHAR KW
ENCODING 4805
SWIDTH 339 0
DWIDTH 24 0
BBX 23 15 0 0
BITMAP
006000
F3E000
FFF000
EF00E0
0F78F0
0FCEF0
038FFC
038F1E
038F0E
078F00
038F00
038F00
038F00
038F00
038700
ENDCHAR
STARTCHAR we
ENCODING 4808
SWIDTH 284 0
DWIDTH 17 0
BBX 15 9 1 2
BITMAP
1FFC
3BDE
7BCE
73CE
F38E
F38E
E79E
F79C
7FF8
ENDCHAR
STARTCHAR wu
ENCODING 4809
SWIDTH 327 0
DWIDTH 20 0
BBX 18 10 1 1
BITMAP
1FF800
3BDC00
739C00
F38E00
F39E00
E79C00
E79C80
F73F80
7FFF80
0003C0
ENDCHAR
STARTCHAR wi
ENCODING 4810
SWIDTH 266 0
DWIDTH 16 0
BBX 14 14 1 -1
BITMAP
1FF8
77BC
F79C
E79C
E7BC
F7B8
7FF0
0700
0700
0F00
0F08
0F38
0FF8
003C
ENDCHAR
STARTCHAR wa
ENCODING 4811
SWIDTH 266 0
DWIDTH 16 0
BBX 14 12 1 0
BITMAP
1FF8
779C
F79C
E79C
E7BC
FFF8
3FE0
0700
0F00
0F00
0F00
0F00
ENDCHAR
STARTCHAR wE
ENCODING 4812
SWIDTH 266 0
DWIDTH 16 0
BBX 13 12 2 0
BITMAP
1FF0
7738
F738
E738
E778
FFF0
3F00
0F00
0F80
0EE0
0EF0
0FE0
ENDCHAR
STARTCHAR w
ENCODING 4813
SWIDTH 375 0
DWIDTH 22 0
BBX 20 9 1 2
BITMAP
1FF800
3BDC00
7B9EE0
738FE0
F39FF0
F39C60
E79C00
F7BC00
7FF800
ENDCHAR
STARTCHAR wo
ENCODING 4814
SWIDTH 284 0
DWIDTH 17 0
BBX 15 12 0 0
BITMAP
0FF8
1DCC
39CE
79CE
7BCE
3FFC
0780
1E00
3C00
7000
E000
E000
ENDCHAR
STARTCHAR `e/e2
ENCODING 4816
SWIDTH 206 0
DWIDTH 12 0
BBX 11 13 1 -1
BITMAP
07C0
39E0
78E0
70E0
F0E0
F0E0
F0E0
E0E0
E0E0
E1E0
F1C0
FC00
7000
ENDCHAR
STARTCHAR `u/u2
ENCODING 4817
SWIDTH 296 0
DWIDTH 18 0
BBX 16 13 1 -1
BITMAP
0F80
39C0
71E0
71E0
F1E0
F1FF
E1E7
E1E7
E1E0
E1E0
E3C0
FC00
7000
ENDCHAR
STARTCHAR `i/i2
ENCODING 4818
SWIDTH 284 0
DWIDTH 17 0
BBX 16 15 1 -1
BITMAP
3F80
79C0
F1E0
E1C0
E1C0
FFE0
0070
0070
00F0
00E0
00E0
01C2
01CE
01FE
000F
ENDCHAR
STARTCHAR `a/A2
ENCODING 4819
SWIDTH 218 0
DWIDTH 13 0
BBX 12 14 1 0
BITMAP
3F80
79C0
F1C0
E1C0
E1C0
FFE0
0070
0070
00F0
00E0
00E0
01C0
01C0
01C0
ENDCHAR
STARTCHAR `E/E2
ENCODING 4820
SWIDTH 284 0
DWIDTH 17 0
BBX 15 14 1 0
BITMAP
3FC0
79E0
F0E0
E0E0
E1E0
FFF0
0078
0078
0070
00F0
00F8
00EE
01EE
01FC
ENDCHAR
STARTCHAR `I/I2
ENCODING 4821
SWIDTH 188 0
DWIDTH 11 0
BBX 10 13 1 0
BITMAP
1E00
1E00
1E00
1F80
79C0
F1C0
F1C0
E1C0
E1C0
E1C0
E3C0
F780
7800
ENDCHAR
STARTCHAR `o/o2
ENCODING 4822
SWIDTH 230 0
DWIDTH 14 0
BBX 12 14 1 0
BITMAP
0FE0
1CF0
3CF0
3CF0
3CF0
3CF0
1DE0
1FC0
3800
7800
F000
F000
E000
F000
ENDCHAR
STARTCHAR ze
ENCODING 4824
SWIDTH 200 0
DWIDTH 12 0
BBX 10 12 1 0
BITMAP
01C0
F1C0
71C0
71C0
FFC0
F3C0
F3C0
F3C0
E3C0
E380
E380
E3C0
ENDCHAR
STARTCHAR zu
ENCODING 4825
SWIDTH 266 0
DWIDTH 16 0
BBX 14 12 1 0
BITMAP
03C0
F1C0
71C0
73C0
FFC0
F3D8
E3FC
E39C
E380
E380
E780
E380
ENDCHAR
STARTCHAR zi
ENCODING 4826
SWIDTH 266 0
DWIDTH 16 0
BBX 14 14 1 -1
BITMAP
03C0
F1C0
71C0
73C0
FFC0
FFC0
F3C0
E380
E380
E380
E788
E7B8
E3F8
003C
ENDCHAR
STARTCHAR za
ENCODING 4827
SWIDTH 200 0
DWIDTH 12 0
BBX 10 12 1 0
BITMAP
01C0
F1C0
71C0
F1C0
FFC0
F3C0
E3C0
E3C0
E3C0
0380
0380
03C0
ENDCHAR
STARTCHAR zE
ENCODING 4828
SWIDTH 260 0
DWIDTH 16 0
BBX 14 12 1 0
BITMAP
03C0
F1C0
71C0
71C0
FFC0
F3C0
F3C0
F380
E3E0
E3BC
E39C
E3FC
ENDCHAR
STARTCHAR z
ENCODING 4829
SWIDTH 272 0
DWIDTH 16 0
BBX 14 12 1 0
BITMAP
001C
FF1C
E79C
E79C
07FC
079C
073C
073C
073C
0F38
0F38
073C
ENDCHAR
STARTCHAR zo
ENCODING 4830
SWIDTH 194 0
DWIDTH 12 0
BBX 10 12 1 0
BITMAP
01C0
F1C0
71C0
73C0
FFC0
F3C0
F380
F380
E380
E000
E000
E000
ENDCHAR
STARTCHAR zWa
ENCODING 4831
SWIDTH 272 0
DWIDTH 16 0
BBX 14 15 1 -2
BITMAP
0380
F3C0
73C0
F380
FF80
F380
E380
E780
E780
C780
0780
0798
7FFC
701C
E00C
ENDCHAR
STARTCHAR Ze
ENCODING 4832
SWIDTH 363 0
DWIDTH 22 0
BBX 20 12 1 0
BITMAP
7E07F0
F70EF0
E39E70
439E00
07FC00
079C00
071C00
073C00
073C00
073C00
073C00
073C00
ENDCHAR
STARTCHAR Zu
ENCODING 4833
SWIDTH 363 0
DWIDTH 22 0
BBX 20 12 1 0
BITMAP
7E07F0
F70EF0
E39E70
439E00
07FC00
079DE0
071DE0
073CE0
073C00
073C00
073C00
073C00
ENDCHAR
STARTCHAR Zi
ENCODING 4834
SWIDTH 363 0
DWIDTH 22 0
BBX 20 13 1 -1
BITMAP
7E07F0
F70EF0
E39E70
439E00
07FC00
079C00
071C00
073C00
073C00
073C00
073CC0
073FE0
0000F0
ENDCHAR
STARTCHAR Za
ENCODING 4835
SWIDTH 363 0
DWIDTH 22 0
BBX 20 12 1 0
BITMAP
7E07F0
F78EF0
E39E70
479E00
07FC00
071C00
071C00
073C00
073C00
003C00
003C00
003C00
ENDCHAR
STARTCHAR ZE
ENCODING 4836
SWIDTH 363 0
DWIDTH 22 0
BBX 20 12 1 0
BITMAP
7E07F0
F70EF0
E39E70
439E00
07FC00
079C00
071C00
073C00
073F80
073DC0
073DE0
073FC0
ENDCHAR
STARTCHAR Z
ENCODING 4837
SWIDTH 387 0
DWIDTH 23 0
BBX 20 15 1 0
BITMAP
E03800
F03800
FFF800
0703E0
7F0FF0
738E70
73DE00
03FE00
039E00
039E00
079C00
079C00
071C00
073C00
079C00
ENDCHAR
STARTCHAR Zo
ENCODING 4838
SWIDTH 363 0
DWIDTH 22 0
BBX 20 12 1 0
BITMAP
7E0FF0
F71EF0
E39E70
439C00
07FC00
079C00
073C00
073C00
073C00
070000
070000
070000
ENDCHAR
STARTCHAR ZWa
ENCODING 4839
SWIDTH 363 0
DWIDTH 22 0
BBX 20 15 1 -2
BITMAP
7E07F0
F78EF0
F39E70
479E00
07FC00
079C00
071C00
073C00
073C00
063C00
003C00
003CC0
03FFE0
0381E0
038040
ENDCHAR
STARTCHAR ye
ENCODING 4840
SWIDTH 176 0
DWIDTH 11 0
BBX 9 13 1 0
BITMAP
3F80
7380
F380
E780
EF00
FC00
F000
7000
7800
3800
3800
3800
3800
ENDCHAR
STARTCHAR yu
ENCODING 4841
SWIDTH 200 0
DWIDTH 12 0
BBX 11 13 1 0
BITMAP
1F80
73C0
F380
E380
E700
FE00
F000
7800
3FC0
39E0
38E0
3800
3800
ENDCHAR
STARTCHAR yi
ENCODING 4842
SWIDTH 254 0
DWIDTH 16 0
BBX 14 13 1 0
BITMAP
3F80
7380
F380
E780
EF00
FC00
F000
71C0
7BC0
3FF8
383C
381C
380C
ENDCHAR
STARTCHAR ya
ENCODING 4843
SWIDTH 230 0
DWIDTH 14 0
BBX 12 14 1 -1
BITMAP
07E0
0E70
0E70
1CF0
1CE0
1FC0
1F00
0E00
0E00
0F00
0F00
FC00
F000
E000
ENDCHAR
STARTCHAR yE
ENCODING 4844
SWIDTH 230 0
DWIDTH 14 0
BBX 12 13 1 0
BITMAP
3F00
7380
F780
E700
EE00
FC00
F000
7FE0
7F70
3B70
39E0
3800
3800
ENDCHAR
STARTCHAR y
ENCODING 4845
SWIDTH 254 0
DWIDTH 15 0
BBX 14 14 1 -1
BITMAP
07E0
1CE0
1CF0
3CE0
39C0
3F80
3E00
3C3C
1C1C
1E3C
1FF8
F000
F000
E000
ENDCHAR
STARTCHAR yo
ENCODING 4846
SWIDTH 254 0
DWIDTH 15 0
BBX 14 13 1 0
BITMAP
1F80
73C0
F380
E398
E7FC
FE1C
F00C
7800
3800
3800
3800
3800
3800
ENDCHAR
STARTCHAR yWa
ENCODING 4847
SWIDTH 176 0
DWIDTH 16 0
BBX 14 16 1 0
BITMAP
E01C
F03C
7FFC
0780
1FE0
39E0
39C0
7BC0
7F80
3C00
3C00
1C00
1E00
1E00
1E00
1E00
ENDCHAR
STARTCHAR de
ENCODING 4848
SWIDTH 230 0
DWIDTH 14 0
BBX 12 13 0 0
BITMAP
07C0
0CE0
1CF0
1CE0
3DE0
3F80
1E00
1C00
0E00
0FE0
7FF0
F070
E030
ENDCHAR
STARTCHAR du
ENCODING 4849
SWIDTH 327 0
DWIDTH 20 0
BBX 18 13 0 0
BITMAP
03F000
073800
0E3800
0E7800
0FF000
0FC000
FF8000
F3F800
E03FC0
0073C0
0071C0
00E000
00E000
ENDCHAR
STARTCHAR di
ENCODING 4850
SWIDTH 308 0
DWIDTH 18 0
BBX 17 14 1 -1
BITMAP
07F000
0E7000
0E7000
0E7000
0FE000
0F8000
FF0000
E3F000
E07000
007000
00F000
00E700
00FF00
000780
ENDCHAR
STARTCHAR da
ENCODING 4851
SWIDTH 242 0
DWIDTH 15 0
BBX 13 13 1 0
BITMAP
03F8
0738
0E38
0E78
0FF0
0FC0
FF80
F3F8
E038
0078
0070
00F0
00F0
ENDCHAR
STARTCHAR dE
ENCODING 4852
SWIDTH 272 0
DWIDTH 16 0
BBX 15 13 0 0
BITMAP
07E0
0CE0
1CF0
1CE0
3DE0
3F80
1C00
1E00
0E00
1FFC
70EE
F0E6
E07E
ENDCHAR
STARTCHAR d
ENCODING 4853
SWIDTH 272 0
DWIDTH 16 0
BBX 15 13 0 0
BITMAP
07C0
0CE0
1CE0
1CE0
3DFC
3F9E
3E0E
1C00
1E00
0FE0
7FF0
F070
E020
ENDCHAR
STARTCHAR do
ENCODING 4854
SWIDTH 284 0
DWIDTH 17 0
BBX 16 13 1 0
BITMAP
03F0
0738
0E38
0E70
0EF0
0FC0
0780
1FFE
300F
7007
F000
E000
F000
ENDCHAR
STARTCHAR dWa
ENCODING 4855
SWIDTH 321 0
DWIDTH 19 0
BBX 18 15 0 -2
BITMAP
07E000
0EE000
1CF000
1CE000
3DE000
3F8000
1C0000
1E0000
0E0000
0FE000
F0F000
F07380
E7FBC0
0701C0
070080
ENDCHAR
STARTCHAR De
ENCODING 4856
SWIDTH 266 0
DWIDTH 16 0
BBX 15 17 0 0
BITMAP
0000
0180
0380
0380
07E0
0EE0
0EF0
1EE0
1EE0
1F80
0E00
0E00
0E00
0FF8
7878
F038
E000
ENDCHAR
STARTCHAR Du
ENCODING 4857
SWIDTH 284 0
DWIDTH 17 0
BBX 17 17 0 0
BITMAP
000000
018000
038000
038000
0FE000
1E7000
1C7000
1CE000
1FC000
1E0000
0FE000
3FF000
F0FF80
F0E780
E0E380
01E000
01C000
ENDCHAR
STARTCHAR Di
ENCODING 4858
SWIDTH 266 0
DWIDTH 16 0
BBX 16 18 0 -1
BITMAP
0000
0180
0380
0780
0FE0
1CE0
1CF0
1CE0
1FC0
1F00
0E00
0FE0
70E0
F0E0
E1E0
01CE
01FE
000F
ENDCHAR
STARTCHAR Da
ENCODING 4859
SWIDTH 266 0
DWIDTH 16 0
BBX 16 17 0 0
BITMAP
0000
0180
03C0
0380
0FE0
1E70
1C70
1CF0
1FE0
1E00
0FE0
3FF0
70F0
F0E0
E0E0
01E0
01C0
ENDCHAR
STARTCHAR DE
ENCODING 4860
SWIDTH 266 0
DWIDTH 16 0
BBX 15 17 0 0
BITMAP
0000
0180
0380
0380
07E0
0EE0
0EF0
1EE0
1EE0
1F80
0E00
0E00
0E00
0FFC
78EE
F0EE
E07C
ENDCHAR
STARTCHAR D
ENCODING 4861
SWIDTH 296 0
DWIDTH 18 0
BBX 17 17 0 0
BITMAP
000000
008000
038000
038000
07E000
0EF000
0E7F80
1EF780
1EE380
1FC000
0E0000
0E0000
0F0000
0FF800
783800
F03C00
E00000
ENDCHAR
STARTCHAR Do
ENCODING 4862
SWIDTH 284 0
DWIDTH 17 0
BBX 16 17 0 0
BITMAP
0000
00C0
01C0
01C0
03F0
0778
0E38
0E70
0FF0
0FC0
0700
1FFE
780F
7007
F000
E000
F000
ENDCHAR
STARTCHAR DWa
ENCODING 4863
SWIDTH 321 0
DWIDTH 19 0
BBX 18 18 0 -2
BITMAP
01C000
01C000
03C000
07E000
0CE000
1CF000
1CE000
3DE000
3F8000
1C0000
1E0000
0E0000
0FF000
F0F000
F07380
E7FBC0
0701C0
070080
ENDCHAR
STARTCHAR je
ENCODING 4864
SWIDTH 266 0
DWIDTH 16 0
BBX 15 17 0 0
BITMAP
000C
787C
7F9E
7380
07E0
0EE0
0EF0
1EE0
1EE0
1F80
0E00
0E00
0E00
0FF8
7878
F038
E000
ENDCHAR
STARTCHAR ju
ENCODING 4865
SWIDTH 284 0
DWIDTH 17 0
BBX 17 17 0 0
BITMAP
000C00
78FE00
7FDE00
738000
0FE000
1E7000
1C7000
1CE000
1FC000
1E0000
0FE000
3FF000
F0FF80
F0E780
E0E380
01E000
01C000
ENDCHAR
STARTCHAR ji
ENCODING 4866
SWIDTH 266 0
DWIDTH 16 0
BBX 16 18 0 -1
BITMAP
001C
70FC
7FBE
7780
0FE0
1CE0
1CF0
1CE0
1FC0
1F00
0E00
0FE0
70E0
F0E0
E1E0
01CE
01FE
000F
ENDCHAR
STARTCHAR ja
ENCODING 4867
SWIDTH 266 0
DWIDTH 16 0
BBX 15 17 0 0
BITMAP
001C
70FC
7F9E
7380
0FE0
1EF0
1CF0
1CE0
1FC0
1E00
0FE0
3FF0
F0F0
F0E0
E1E0
01C0
01C0
ENDCHAR
STARTCHAR jE
ENCODING 4868
SWIDTH 266 0
DWIDTH 16 0
BBX 15 17 0 0
BITMAP
000C
787C
7F9E
7380
07E0
0EE0
0EF0
1EE0
1EE0
1F80
0E00
0E00
0E00
0FFC
78EE
F0EE
E07C
ENDCHAR
STARTCHAR j
ENCODING 4869
SWIDTH 296 0
DWIDTH 18 0
BBX 17 17 0 0
BITMAP
000E00
787E00
3FDE00
738400
07E000
0EF000
0E7F80
1EF780
1EE380
1FC000
0E0000
0E0000
0F0000
0FF800
783800
F03C00
E00000
ENDCHAR
STARTCHAR jo
ENCODING 4870
SWIDTH 284 0
DWIDTH 17 0
BBX 16 17 0 0
BITMAP
000E
387E
3FEF
39C0
03F0
0778
0E38
0E70
0FF0
0FC0
0700
1FFE
780F
7007
F000
E000
F000
ENDCHAR
STARTCHAR jWa
ENCODING 4871
SWIDTH 321 0
DWIDTH 19 0
BBX 18 18 0 -2
BITMAP
000E00
787E00
3FDE00
73C000
0FE000
1CF000
1CE000
3DE000
3FC000
3F0000
1C0000
0E0000
0FE000
7FF000
F07000
E7FBC0
0703C0
070080
ENDCHAR
STARTCHAR ge
ENCODING 4872
SWIDTH 176 0
DWIDTH 11 0
BBX 9 13 0 0
BITMAP
7F00
F780
E380
4380
0380
0780
0780
0700
0700
0700
0F00
0F00
0F00
ENDCHAR
STARTCHAR gu
ENCODING 4873
SWIDTH 254 0
DWIDTH 15 0
BBX 14 13 0 0
BITMAP
7F00
F380
F380
4380
0380
0780
07FC
07BC
071C
0700
0700
0F00
0F00
ENDCHAR
STARTCHAR gi
ENCODING 4874
SWIDTH 254 0
DWIDTH 15 0
BBX 14 14 0 -1
BITMAP
7F00
F380
F380
4380
0380
0780
0780
0700
0700
0700
0708
0F38
07FC
003C
ENDCHAR
STARTCHAR ga
ENCODING 4875
SWIDTH 230 0
DWIDTH 14 0
BBX 12 13 0 0
BITMAP
1FE0
1C70
1C70
0070
0070
0070
0070
0070
00E0
01E0
FF80
E000
E000
ENDCHAR
STARTCHAR gE
ENCODING 4876
SWIDTH 230 0
DWIDTH 14 0
BBX 12 13 0 0
BITMAP
7F00
F780
E380
4380
0780
0780
0700
0700
0700
0FC0
0F70
0E70
0FF0
ENDCHAR
STARTCHAR g
ENCODING 4877
SWIDTH 218 0
DWIDTH 13 0
BBX 12 13 1 0
BITMAP
3FE0
EEF0
EE70
FE70
FCF0
00F0
00F0
00E0
00E0
01E0
01E0
01C0
01E0
ENDCHAR
STARTCHAR go
ENCODING 4878
SWIDTH 200 0
DWIDTH 12 0
BBX 10 14 1 0
BITMAP
0E00
0E00
0E00
7FC0
F1C0
E1C0
43C0
03C0
0380
0380
0380
0780
0780
0780
ENDCHAR
STARTCHAR gWe
ENCODING 4880
SWIDTH 321 0
DWIDTH 19 0
BBX 18 13 0 0
BITMAP
7F0000
F38000
F38000
438000
038000
07FFC0
07B9C0
0739C0
073FC0
070F80
070000
0F0000
0F0000
ENDCHAR
STARTCHAR gWi
ENCODING 4882
SWIDTH 339 0
DWIDTH 20 0
BBX 19 13 0 0
BITMAP
7F0000
F38000
F39C00
439E00
039E00
07FC00
079C00
071FE0
0701E0
0700E0
0F0000
0F0000
0F0000
ENDCHAR
STARTCHAR gWa
ENCODING 4883
SWIDTH 206 0
DWIDTH 12 0
BBX 12 13 0 0
BITMAP
7F80
F3C0
F3C0
43C0
0380
07E0
7070
F0F0
F0F0
40E0
01E0
01E0
01E0
ENDCHAR
STARTCHAR gWE
ENCODING 4884
SWIDTH 266 0
DWIDTH 16 0
BBX 15 15 0 -2
BITMAP
1FF0
1C78
3C78
1878
0070
00F0
00F0
01E0
01FE
01CE
03DE
3FF8
F000
F000
E000
ENDCHAR
STARTCHAR gW
ENCODING 4885
SWIDTH 308 0
DWIDTH 18 0
BBX 17 13 0 0
BITMAP
7F0000
F78000
E39C00
439C00
03BC00
07FF00
078780
070380
070000
070000
0F0000
0F0000
0F0000
ENDCHAR
STARTCHAR Ge
ENCODING 4888
SWIDTH 176 0
DWIDTH 11 0
BBX 16 17 0 0
BITMAP
0018
F0F8
FF3C
E000
0FC0
3DE0
38E0
30E0
01E0
01E0
01C0
01C0
01C0
03C0
03C0
0380
03C0
ENDCHAR
STARTCHAR Gu
ENCODING 4889
SWIDTH 254 0
DWIDTH 15 0
BBX 17 17 0 0
BITMAP
001C00
F0FC00
FFBC00
E00800
0FC000
3DE000
38E000
30E000
00E000
01E000
01FE00
01CE00
01C700
01C000
03C000
03C000
03C000
ENDCHAR
STARTCHAR Gi
ENCODING 4890
SWIDTH 254 0
DWIDTH 15 0
BBX 16 18 0 -1
BITMAP
001C
F0FC
FFBC
E008
0FC0
3CE0
38E0
30E0
00E0
01E0
01E0
01C0
01C0
01C0
03C2
03CE
03FF
000F
ENDCHAR
STARTCHAR Ga
ENCODING 4891
SWIDTH 230 0
DWIDTH 14 0
BBX 16 17 0 0
BITMAP
000E
787E
7F9E
7000
1FE0
1E70
1C70
0078
0078
0078
0070
0070
00F0
01E0
FF80
F000
E000
ENDCHAR
STARTCHAR GE
ENCODING 4892
SWIDTH 230 0
DWIDTH 14 0
BBX 14 17 0 0
BITMAP
0018
E0F8
FF3C
E000
0FC0
3DE0
38E0
31E0
01E0
01E0
01C0
01C0
01C0
03F0
03FC
039C
03FC
ENDCHAR
STARTCHAR G
ENCODING 4893
SWIDTH 218 0
DWIDTH 13 0
BBX 15 17 0 0
BITMAP
001C
F0FC
FFBE
E000
0FE0
7E70
E778
EE70
7C70
0070
00F0
00F0
00F0
00E0
00E0
01E0
00E0
ENDCHAR
STARTCHAR Go
ENCODING 4894
SWIDTH 200 0
DWIDTH 12 0
BBX 14 17 1 0
BITMAP
0000
0000
0038
FFF8
FFBC
C780
07C0
38E0
38F0
70E0
00E0
00E0
01E0
01C0
01C0
01C0
01C0
ENDCHAR
STARTCHAR GWa
ENCODING 4895
SWIDTH 206 0
DWIDTH 16 0
BBX 14 16 0 0
BITMAP
E01C
F03C
FFFC
0F80
3FE0
38F0
30E0
01E0
01C0
1E3C
3C3C
3838
3078
0078
0070
0070
ENDCHAR
STARTCHAR Te
ENCODING 4896
SWIDTH 308 0
DWIDTH 18 0
BBX 16 10 1 0
BITMAP
07FC
1FFE
3BCE
73CF
F3CF
F3CF
E3CF
E3CF
E3CF
F3CF
ENDCHAR
STARTCHAR Tu
ENCODING 4897
SWIDTH 387 0
DWIDTH 23 0
BBX 21 10 1 0
BITMAP
0FF800
1FFE00
3B8E10
738E70
F38FF0
F38E78
E38E00
E38E00
E38E00
F3CF00
ENDCHAR
STARTCHAR Ti
ENCODING 4898
SWIDTH 387 0
DWIDTH 23 0
BBX 20 11 1 -1
BITMAP
0FF800
1FFC00
339E00
738E00
F38E00
E38E00
E38E00
E38E20
E38EE0
F38FE0
0000F0
ENDCHAR
STARTCHAR Ta
ENCODING 4899
SWIDTH 308 0
DWIDTH 18 0
BBX 15 12 1 0
BITMAP
1FFC
3B9E
738E
E38E
E78E
E70E
E79E
001E
001C
001C
001C
001C
ENDCHAR
STARTCHAR TE
ENCODING 4900
SWIDTH 375 0
DWIDTH 22 0
BBX 20 10 1 0
BITMAP
0FF800
1FFC00
3B8E00
738E00
F38E00
F38E00
E38FC0
E38EF0
E38E70
F3CFF0
ENDCHAR
STARTCHAR T
ENCODING 4901
SWIDTH 284 0
DWIDTH 17 0
BBX 14 12 1 0
BITMAP
3FE0
77B8
E7BC
E71C
E7DC
03C0
0380
0380
0780
0780
0780
0780
ENDCHAR
STARTCHAR To
ENCODING 4902
SWIDTH 308 0
DWIDTH 18 0
BBX 16 11 1 0
BITMAP
0FF8
1BDE
33CE
738F
738F
E38F
E38F
E387
E000
E000
F000
ENDCHAR
STARTCHAR TWa
ENCODING 4903
SWIDTH 387 0
DWIDTH 23 0
BBX 21 12 1 -2
BITMAP
0FFC00
3FDE00
738E00
738E00
F38E00
E38E00
E38E00
E38E00
E3CE70
00FFF8
00E078
00E010
ENDCHAR
STARTCHAR Ce
ENCODING 4904
SWIDTH 405 0
DWIDTH 24 0
BBX 22 10 1 0
BITMAP
00FF00
0FFF80
3DE3C0
71E3C0
71E3C0
F1E3C0
FDFFF8
EFEFDC
EFEFDC
FFFDFC
ENDCHAR
STARTCHAR Cu
ENCODING 4905
SWIDTH 429 0
DWIDTH 26 0
BBX 23 10 1 0
BITMAP
00FF00
0FFF80
39C380
71C3FE
71C3CE
E1C3CE
FDFBF0
EFDFD8
EFCFDC
FDFFF8
ENDCHAR
STARTCHAR Ci
ENCODING 4906
SWIDTH 429 0
DWIDTH 26 0
BBX 23 12 1 -2
BITMAP
00FF00
0FFF80
3DC3C0
71C3C0
71C3C0
F1C3C0
FDFFC0
EFCFC0
EFEFC0
FDFDFC
00001E
00000E
ENDCHAR
STARTCHAR Ca
ENCODING 4907
SWIDTH 393 0
DWIDTH 23 0
BBX 21 12 1 0
BITMAP
0FFF80
3CE3C0
71E1C0
FDF9C0
EFDDC0
EFDFC0
FDFFC0
1003C0
0003F0
0003B8
0003B8
0003F8
ENDCHAR
STARTCHAR CE
ENCODING 4908
SWIDTH 405 0
DWIDTH 24 0
BBX 22 10 1 0
BITMAP
00FF00
0FFF80
3DE3C0
71E3C0
71E3C0
F1E3C0
FDFFF8
EFEFDC
EFEFDC
FFFDFC
ENDCHAR
STARTCHAR C
ENCODING 4909
SWIDTH 393 0
DWIDTH 23 0
BBX 22 12 1 0
BITMAP
1FFE00
787380
F071E0
FEF1FC
EE79FC
EE39FC
F879F0
007800
007E00
007E00
007700
007E00
ENDCHAR
STARTCHAR Co
ENCODING 4910
SWIDTH 393 0
DWIDTH 23 0
BBX 21 11 1 0
BITMAP
07FF00
1DC780
39C380
71C3C0
71FBF8
E1DFB8
E1DFF8
FDF9F0
EE0000
EE0000
FC0000
ENDCHAR
STARTCHAR CWa
ENCODING 4911
SWIDTH 423 0
DWIDTH 25 0
BBX 23 13 1 -3
BITMAP
03FF00
1FFF80
39C380
71C3C0
F1C3C0
FDFFC0
EFCFC0
EFCFC0
FFFFC0
0813DC
001FFE
003C0E
003804
ENDCHAR
STARTCHAR Pe
ENCODING 4912
SWIDTH 242 0
DWIDTH 15 0
BBX 12 14 1 0
BITMAP
0F00
0F00
1F80
79C0
71E0
71E0
3FC0
1F80
3DE0
78E0
F0F0
E0F0
E0F0
F070
ENDCHAR
STARTCHAR Pu
ENCODING 4913
SWIDTH 296 0
DWIDTH 18 0
BBX 16 14 1 0
BITMAP
0F00
0F00
1F80
79C0
71E0
71C0
3FC0
1F80
3DE6
78EF
F0E7
E0E2
E0F0
F0F0
ENDCHAR
STARTCHAR Pi
ENCODING 4914
SWIDTH 308 0
DWIDTH 18 0
BBX 17 15 1 -1
BITMAP
0F0000
0F0000
1F8000
79C000
71E000
71C000
3F8000
1F8000
3DE000
78E000
F0E000
E0E100
E0F700
F0FF80
000780
ENDCHAR
STARTCHAR Pa
ENCODING 4915
SWIDTH 242 0
DWIDTH 15 0
BBX 12 14 0 0
BITMAP
0F00
0F00
1F80
39C0
79E0
79E0
3BC0
1F80
78E0
E0E0
E0F0
E0F0
00F0
0070
ENDCHAR
STARTCHAR PE
ENCODING 4916
SWIDTH 296 0
DWIDTH 18 0
BBX 16 14 1 0
BITMAP
0F00
0F00
1F80
79C0
71E0
71C0
3FC0
1F80
3DE0
78E0
F0FC
E0FF
E0F7
F0FE
ENDCHAR
STARTCHAR P
ENCODING 4917
SWIDTH 290 0
DWIDTH 17 0
BBX 15 14 1 0
BITMAP
0E00
0E00
3F80
71C0
F1FE
73DE
778E
1F80
39C0
71E0
F1E0
E0E0
E0E0
E0E0
ENDCHAR
STARTCHAR Po
ENCODING 4918
SWIDTH 218 0
DWIDTH 13 0
BBX 11 14 1 0
BITMAP
0E00
0E00
1F80
71C0
71C0
73C0
3F80
1F80
39E0
70E0
F0E0
E0E0
E000
E000
ENDCHAR
STARTCHAR PWa
ENCODING 4919
SWIDTH 242 0
DWIDTH 15 0
BBX 16 16 0 -2
BITMAP
0700
0700
1FC0
39E0
78E0
79E0
3FC0
3FC0
70E0
E0F0
E0F0
0070
0070
03FF
0787
0707
ENDCHAR
STARTCHAR Se
ENCODING 4920
SWIDTH 218 0
DWIDTH 13 0
BBX 12 12 1 0
BITMAP
3FC0
79C0
71E0
73C0
3F80
1FC0
3DE0
78E0
F0F0
E0F0
E0F0
F070
ENDCHAR
STARTCHAR Su
ENCODING 4921
SWIDTH 296 0
DWIDTH 18 0
BBX 16 12 1 0
BITMAP
3FC0
79C0
71E0
73C0
3F80
1FC0
3DFE
78EF
F0E7
E0F2
E0F0
F0F0
ENDCHAR
STARTCHAR Si
ENCODING 4922
SWIDTH 308 0
DWIDTH 18 0
BBX 17 13 1 -1
BITMAP
3F8000
71C000
71E000
73C000
3F8000
1FC000
39E000
70E000
F0E000
E0E100
E0F700
F0FF80
000780
ENDCHAR
STARTCHAR Sa
ENCODING 4923
SWIDTH 218 0
DWIDTH 13 0
BBX 12 12 0 0
BITMAP
1F80
39C0
79E0
79E0
3BC0
1FC0
78E0
E0E0
E0F0
60F0
00F0
0070
ENDCHAR
STARTCHAR SE
ENCODING 4924
SWIDTH 296 0
DWIDTH 18 0
BBX 16 12 1 0
BITMAP
3FC0
79C0
71E0
73C0
3F80
1FC0
3DE0
78E0
F0FC
E0FF
E0F7
F0FE
ENDCHAR
STARTCHAR S
ENCODING 4925
SWIDTH 290 0
DWIDTH 17 0
BBX 15 12 1 0
BITMAP
3F80
71C0
F1FE
73CE
778E
1F80
39C0
71E0
F0E0
E0E0
E0E0
E0E0
ENDCHAR
STARTCHAR So
ENCODING 4926
SWIDTH 218 0
DWIDTH 13 0
BBX 11 12 1 0
BITMAP
3F80
71C0
71C0
73C0
3F80
1F80
39E0
70E0
F0E0
E0E0
E000
E000
ENDCHAR
STARTCHAR SWa
ENCODING 4927
SWIDTH 221 0
DWIDTH 16 0
BBX 16 14 0 -2
BITMAP
1FC0
38E0
78E0
39E0
1FC0
3FC0
70E0
E0F0
F0F0
0070
0070
03FF
0787
0707
ENDCHAR
STARTCHAR `Se/S2e
ENCODING 4928
SWIDTH 200 0
DWIDTH 12 0
BBX 10 13 1 -1
BITMAP
0F80
3BC0
71C0
F1C0
F1C0
F7C0
F1C0
E1C0
E1C0
E1C0
F3C0
FC00
7000
ENDCHAR
STARTCHAR `Su/S2u
ENCODING 4929
SWIDTH 284 0
DWIDTH 17 0
BBX 15 13 1 -1
BITMAP
0F00
3380
73C0
F3C0
E3C0
FFC0
F3FE
E3CE
E3C6
E380
E380
FC00
7000
ENDCHAR
STARTCHAR `Si/S2i
ENCODING 4930
SWIDTH 218 0
DWIDTH 13 0
BBX 12 14 1 -1
BITMAP
3E00
6700
E700
FF80
E700
7700
3F00
0F00
0E00
0E00
1E20
1EE0
1FE0
00F0
ENDCHAR
STARTCHAR `Sa/S2a
ENCODING 4931
SWIDTH 176 0
DWIDTH 11 0
BBX 9 13 1 0
BITMAP
3E00
7300
E380
FF80
E780
7780
3F00
0700
0F00
0E00
0E00
1E00
1E00
ENDCHAR
STARTCHAR `SE/S2E
ENCODING 4932
SWIDTH 218 0
DWIDTH 13 0
BBX 11 13 1 0
BITMAP
3E00
6700
E700
FF80
E700
7700
3F00
0F00
0E00
0FC0
1EE0
1EE0
1FE0
ENDCHAR
STARTCHAR `S/S2
ENCODING 4933
SWIDTH 182 0
DWIDTH 11 0
BBX 9 13 1 0
BITMAP
3C00
1C00
1C00
3F00
7380
F380
E380
FF80
E380
E380
E380
F700
7C00
ENDCHAR
STARTCHAR `So/S2o
ENCODING 4934
SWIDTH 230 0
DWIDTH 14 0
BBX 12 14 1 0
BITMAP
0FE0
1CF0
3CF0
3FF0
3CF0
3CF0
1DE0
1FC0
3800
7800
F000
F000
E000
F000
ENDCHAR
STARTCHAR fe
ENCODING 4936
SWIDTH 284 0
DWIDTH 17 0
BBX 15 14 0 -1
BITMAP
0780
0380
0380
0780
0F00
1E00
1C00
3F00
7F80
F78C
E79C
E7FE
FE0C
7800
ENDCHAR
STARTCHAR fu
ENCODING 4937
SWIDTH 266 0
DWIDTH 16 0
BBX 14 13 1 0
BITMAP
0F00
0F00
0F00
1E00
3C00
7F80
F7B8
F7F8
FFBC
0E00
1E00
1C00
1E00
ENDCHAR
STARTCHAR fi
ENCODING 4938
SWIDTH 284 0
DWIDTH 17 0
BBX 15 14 0 -1
BITMAP
0780
0380
0380
0780
0700
0E00
1C00
3F00
7F9E
F39E
F39C
F3F8
F780
7C00
ENDCHAR
STARTCHAR fa
ENCODING 4939
SWIDTH 266 0
DWIDTH 16 0
BBX 13 13 1 0
BITMAP
0F00
0F00
0F00
1E00
3C00
7F80
F780
F780
FFF8
0778
0F38
0F00
0F00
ENDCHAR
STARTCHAR fE
ENCODING 4940
SWIDTH 314 0
DWIDTH 19 0
BBX 18 15 0 -2
BITMAP
03C000
03C000
03C000
078000
070000
0F0000
1C0000
7F0000
7F8000
F38000
E38180
E3FFC0
FFB9C0
7C39C0
001F80
ENDCHAR
STARTCHAR f
ENCODING 4941
SWIDTH 254 0
DWIDTH 15 0
BBX 14 13 1 0
BITMAP
0FF0
3C70
7070
F000
F000
E780
F380
FFF8
07BC
071C
0700
0F00
0F00
ENDCHAR
STARTCHAR fo
ENCODING 4942
SWIDTH 284 0
DWIDTH 17 0
BBX 14 14 1 0
BITMAP
01F8
1F9C
3B9C
73FC
F1F8
F000
F000
F000
FF00
E700
E738
E7F8
EFFC
7C00
ENDCHAR
STARTCHAR fWa
ENCODING 4943
SWIDTH 266 0
DWIDTH 15 0
BBX 13 16 1 -2
BITMAP
0F00
0F00
0F00
1E00
3C00
7F80
F780
F780
FFF8
0778
0F38
0F00
0F30
FFF8
F038
E018
ENDCHAR
STARTCHAR pe
ENCODING 4944
SWIDTH 284 0
DWIDTH 17 0
BBX 16 14 0 0
BITMAP
0FFF
F3CF
E3C7
C380
0380
0380
0380
0380
0380
0380
0380
0380
0380
0380
ENDCHAR
STARTCHAR pu
ENCODING 4945
SWIDTH 284 0
DWIDTH 17 0
BBX 16 14 0 0
BITMAP
0FFF
F3CF
E3C7
C380
0380
0380
0384
039C
03FE
038E
0380
0380
0380
0380
ENDCHAR
STARTCHAR pi
ENCODING 4946
SWIDTH 284 0
DWIDTH 17 0
BBX 16 15 0 -1
BITMAP
7FFF
F3CF
E3C7
C380
0380
0380
0380
0380
0380
0380
0380
0386
039C
03FE
001E
ENDCHAR
STARTCHAR pa
ENCODING 4947
SWIDTH 308 0
DWIDTH 18 0
BBX 17 15 0 -1
BITMAP
1FFF80
38E780
78E380
30E000
00E000
00E000
00E000
00E000
00E000
01C000
01C000
078000
FE0000
E00000
E00000
ENDCHAR
STARTCHAR pE
ENCODING 4948
SWIDTH 284 0
DWIDTH 17 0
BBX 16 14 0 0
BITMAP
0FFF
F3CF
E3C7
C380
0380
0380
0380
0380
0380
0380
03F0
03B8
03BC
03F8
ENDCHAR
STARTCHAR p
ENCODING 4949
SWIDTH 284 0
DWIDTH 17 0
BBX 16 14 1 0
BITMAP
0FFF
F38F
E387
C380
03C0
01C0
03C0
03C0
0380
0380
0380
0780
0780
0780
ENDCHAR
STARTCHAR po
ENCODING 4950
SWIDTH 302 0
DWIDTH 18 0
BBX 17 14 0 0
BITMAP
07FF80
38E780
78E380
30E000
00E000
01E000
01C000
038000
070000
1E0000
380000
F00000
F00000
F00000
ENDCHAR
STARTCHAR pWa
ENCODING 4951
SWIDTH 308 0
DWIDTH 25 0
BBX 23 17 0 -2
BITMAP
00FFFE
00E79E
01C78E
008780
000780
000780
000780
000780
000780
000700
000E00
007C00
03F000
038000
FFF800
F03800
E01800
ENDCHAR
STARTCHAR mYa
ENCODING 4952
SWIDTH 375 0
DWIDTH 22 0
BBX 20 17 1 0
BITMAP
0E01C0
0703C0
07FFC0
0078E0
0FFFF0
3DCE70
73DC70
E3BCF0
E79FF0
FF0FE0
0001E0
0001C0
0003C0
000380
000380
000380
000380
ENDCHAR
STARTCHAR rYa
ENCODING 4953
SWIDTH 218 0
DWIDTH 18 0
BBX 16 15 1 0
BITMAP
380E
3C1E
3FFE
01C0
01C0
03C0
0780
0F00
3C00
7800
F040
E1E0
E1E0
F3C0
7F00
ENDCHAR
STARTCHAR fYa
ENCODING 4954
SWIDTH 0 0
DWIDTH 17 0
BBX 15 14 0 0
BITMAP
700E
781E
7FFE
03C0
03C0
0380
0780
0F00
1E08
3F38
3BB8
33B8
7FE0
3800
ENDCHAR
STARTCHAR Space
ENCODING 4960
SWIDTH 441 0
DWIDTH 26 0
BBX 0 0 0 0
BITMAP
ENDCHAR
STARTCHAR Ethiopic-Wordspace
ENCODING 4961
SWIDTH 218 0
DWIDTH 10 0
BBX 3 8 -1 3
BITMAP
E0
E0
E0
00
00
E0
E0
E0
ENDCHAR
STARTCHAR Ethiopic-Full-Stop
ENCODING 4962
SWIDTH 434 0
DWIDTH 14 0
BBX 8 8 -1 3
BITMAP
47
E7
E7
C0
03
E7
E7
E2
ENDCHAR
STARTCHAR Ethiopic-Comma
ENCODING 4963
SWIDTH 200 0
DWIDTH 12 0
BBX 8 11 1 2
BITMAP
7F
FF
00
38
38
38
00
00
38
38
38
ENDCHAR
STARTCHAR Ethiopic-Semicolon
ENCODING 4964
SWIDTH 200 0
DWIDTH 12 0
BBX 8 13 1 1
BITMAP
7F
FF
00
18
38
38
00
18
38
38
00
7E
FE
ENDCHAR
STARTCHAR Ethiopic-Colon
ENCODING 4965
SWIDTH 188 0
DWIDTH 11 0
BBX 8 9 0 2
BITMAP
E0
E0
E0
00
7F
00
E0
E0
E0
ENDCHAR
STARTCHAR Ethiopic-Preface-Colon
ENCODING 4966
SWIDTH 188 0
DWIDTH 11 0
BBX 6 9 0 2
BITMAP
30
78
30
0C
FC
C0
30
78
30
ENDCHAR
STARTCHAR Ethiopic-Question-Mark
ENCODING 4967
SWIDTH 218 0
DWIDTH 16 0
BBX 3 12 -1 3
BITMAP
E0
E0
E0
00
60
E0
E0
C0
00
E0
E0
E0
ENDCHAR
STARTCHAR Ethiopic-End-Paragraph
ENCODING 4968
SWIDTH 308 0
DWIDTH 18 0
BBX 12 15 -1 -1
BITMAP
0600
0600
0600
E070
E070
E070
0600
0600
0600
E070
E070
E070
0600
0600
0600
ENDCHAR
STARTCHAR Ethiopic-1
ENCODING 4969
SWIDTH 254 0
DWIDTH 15 0
BBX 13 17 1 -2
BITMAP
3FF8
7878
7038
2600
0700
0F00
0E00
1F80
3BC0
79C0
71C0
71C0
7F80
0060
FFF0
F070
E020
ENDCHAR
STARTCHAR Ethiopic-2
ENCODING 4970
SWIDTH 230 0
DWIDTH 14 0
BBX 12 17 1 -2
BITMAP
7FF0
F0F0
E070
4F80
3DC0
39E0
7BC0
7F80
3800
3F80
3DE0
1DE0
0F80
0060
FFF0
F070
E030
ENDCHAR
STARTCHAR Ethiopic-3
ENCODING 4971
SWIDTH 242 0
DWIDTH 15 0
BBX 12 17 1 -2
BITMAP
7FF0
F0F0
F070
4000
7FC0
F1E0
F0E0
F000
F000
E000
E000
E000
F000
0060
7FF0
F0F0
E020
ENDCHAR
STARTCHAR Ethiopic-4
ENCODING 4972
SWIDTH 242 0
DWIDTH 15 0
BBX 12 17 1 -2
BITMAP
7FF0
F0F0
F070
4000
1F80
39C0
71C0
71E0
71E0
71C0
39C0
1F80
0000
0060
7FF0
F0F0
E020
ENDCHAR
STARTCHAR Ethiopic-5
ENCODING 4973
SWIDTH 242 0
DWIDTH 15 0
BBX 12 17 0 -2
BITMAP
7FF0
70F0
7070
0000
0F00
0E00
1FE0
3CF0
7070
E000
E0C0
E1E0
7FE0
0060
7FF0
7070
F030
ENDCHAR
STARTCHAR Ethiopic-6
ENCODING 4974
SWIDTH 218 0
DWIDTH 13 0
BBX 12 17 1 -2
BITMAP
7FF0
F0F0
F070
4000
FF80
FFC0
E3C0
0780
0700
0F00
1FE0
1CE0
1FC0
07E0
7FF0
F0F0
E030
ENDCHAR
STARTCHAR Ethiopic-7
ENCODING 4975
SWIDTH 266 0
DWIDTH 16 0
BBX 12 17 2 -2
BITMAP
3FF0
70F0
7070
2000
7F80
73C0
7380
0700
0F00
0E00
1C60
1CE0
1FF0
00F0
FFE0
F0E0
E060
ENDCHAR
STARTCHAR Ethiopic-8
ENCODING 4976
SWIDTH 284 0
DWIDTH 17 0
BBX 15 18 1 -3
BITMAP
1FF0
1C78
3C38
0000
7FFC
739E
738E
4380
0380
0780
0780
07FC
F03C
E01C
C000
3FF0
3C70
3870
ENDCHAR
STARTCHAR Ethiopic-9
ENCODING 4977
SWIDTH 242 0
DWIDTH 15 0
BBX 11 17 2 -2
BITMAP
7FE0
70E0
70E0
0000
01C0
79E0
38E0
39E0
7DC0
79C0
7380
7300
3E00
0880
7FC0
F1C0
E0C0
ENDCHAR
STARTCHAR Ethiopic-10
ENCODING 4978
SWIDTH 218 0
DWIDTH 13 0
BBX 12 17 1 -2
BITMAP
7FF0
F0F0
F070
4700
0780
0700
0700
0F00
0E00
0E00
1E00
1E00
0E00
0060
7FF0
F0F0
E030
ENDCHAR
STARTCHAR Ethiopic-20
ENCODING 4979
SWIDTH 266 0
DWIDTH 16 0
BBX 15 17 0 -2
BITMAP
1FF8
1C38
3C1C
0000
7FFE
F3CE
E386
07E0
0FF8
1E78
1C78
1C38
1C38
0010
1FF8
3C38
3818
ENDCHAR
STARTCHAR Ethiopic-30
ENCODING 4980
SWIDTH 272 0
DWIDTH 16 0
BBX 15 17 0 -2
BITMAP
07FE
0F1E
0E0E
0000
30F8
73DE
E38E
E38E
E38E
E39E
E79E
771E
3E1E
0010
1FFC
1E3C
1C1C
ENDCHAR
STARTCHAR Ethiopic-40
ENCODING 4981
SWIDTH 272 0
DWIDTH 16 0
BBX 13 17 1 -2
BITMAP
1FF0
3C78
3838
0000
7738
F7B8
E738
E7F8
7FF8
0070
00F0
00F0
0070
0040
7FE0
70E0
7060
ENDCHAR
STARTCHAR Ethiopic-50
ENCODING 4982
SWIDTH 218 0
DWIDTH 13 0
BBX 10 17 1 -2
BITMAP
FFC0
F3C0
E1C0
0000
3600
7700
7700
FF00
7F00
0E00
0E00
1E00
1E00
0000
FFC0
F3C0
E1C0
ENDCHAR
STARTCHAR Ethiopic-60
ENCODING 4983
SWIDTH 284 0
DWIDTH 17 0
BBX 15 17 1 -2
BITMAP
1FF8
1C78
3C38
0008
FFFE
F70E
E7C6
01C0
03C0
03C0
7FFC
F01C
E00C
4020
3FF0
3878
3830
ENDCHAR
STARTCHAR Ethiopic-70
ENCODING 4984
SWIDTH 266 0
DWIDTH 16 0
BBX 14 17 1 -2
BITMAP
7FF0
78F0
7070
01F8
1FFC
3B9C
73FC
F1F8
F000
E000
E0C0
F1C0
7FE0
00C0
FFE0
F0E0
E060
ENDCHAR
STARTCHAR Ethiopic-80
ENCODING 4985
SWIDTH 345 0
DWIDTH 21 0
BBX 19 17 1 -2
BITMAP
07FE00
070F00
070700
000000
7FFFC0
F7BDE0
E73CE0
C73C00
073800
0F3800
0F7800
0E7800
0F3800
000000
07FE00
0F0E00
0E0E00
ENDCHAR
STARTCHAR Ethiopic-90
ENCODING 4986
SWIDTH 230 0
DWIDTH 14 0
BBX 11 17 1 -2
BITMAP
7FE0
70E0
70E0
0000
7F80
7380
6780
07C0
03C0
0380
0780
0700
0700
0400
FFC0
F1E0
E0C0
ENDCHAR
STARTCHAR Ethiopic-100
ENCODING 4987
SWIDTH 218 0
DWIDTH 13 0
BBX 12 17 0 -2
BITMAP
3FF0
38F0
7070
2000
1FC0
3CE0
3DE0
3DC0
3F80
3C00
1C00
1E00
1E00
0080
FFC0
F1E0
E060
ENDCHAR
STARTCHAR Ethiopic-10000
ENCODING 4988
SWIDTH 218 0
DWIDTH 13 0
BBX 23 17 0 -2
BITMAP
3FFFE0
7800E0
700060
000000
1FCFC0
3DFEE0
39DCE0
3BDDE0
3FFF80
3C1E00
1C0E00
1C0E00
1C0E00
000000
FFFFE0
E000E0
E00060
ENDCHAR
STARTCHAR `qe/q2e
ENCODING 4992
SWIDTH 260 0
DWIDTH 17 0
BBX 15 17 0 0
BITMAP
0C10
0C1C
1E3C
03E0
03C0
03C0
03C0
03F8
3FDE
F39E
F39E
FFFC
7F80
0780
0780
0780
0780
ENDCHAR
STARTCHAR `qu/q2u
ENCODING 4993
SWIDTH 260 0
DWIDTH 16 0
BBX 16 17 0 0
BITMAP
0C10
0C1C
1E38
03E0
03C0
03C0
03C0
03F8
3FDE
F39E
F39E
FFFC
7F88
07B8
07FC
071C
0780
ENDCHAR
STARTCHAR `qi/q2i
ENCODING 4994
SWIDTH 260 0
DWIDTH 16 0
BBX 16 18 0 -1
BITMAP
0C10
0C1C
1E3C
03E0
03C0
03C0
03C0
03F8
3FFC
F39E
F39E
F3FC
7FC0
0780
0780
0738
07F8
03BC
ENDCHAR
STARTCHAR `qa/q2a
ENCODING 4995
SWIDTH 284 0
DWIDTH 17 0
BBX 17 19 0 -1
BITMAP
060800
060E00
0F1E00
01F000
00E000
00E000
00E000
00E000
07FF00
3CEF00
38EF80
79EF00
7FFC00
1DE000
01C000
078000
7C0000
F00000
E00000
ENDCHAR
STARTCHAR `qE/q2E
ENCODING 4996
SWIDTH 260 0
DWIDTH 16 0
BBX 16 17 0 0
BITMAP
0C10
0C1C
1E38
03E0
03C0
03C0
03C0
03F8
3FDE
F39E
F39E
FFFC
7F80
07C0
07F8
073C
07F8
ENDCHAR
STARTCHAR `q/q2
ENCODING 4997
SWIDTH 260 0
DWIDTH 16 0
BBX 16 19 0 0
BITMAP
1060
3070
78F0
0F80
0780
0780
00E0
00E0
01E0
07FE
1FEF
39CF
79CF
7FFE
1FC0
01C0
01C0
03C0
03C0
ENDCHAR
STARTCHAR `qo/q2o
ENCODING 4998
SWIDTH 272 0
DWIDTH 16 0
BBX 15 17 0 0
BITMAP
0830
1838
3C78
07C0
07E0
0F70
0E70
0E70
07E0
07FC
3F9E
F79E
F7BE
FFF8
0700
0700
0780
ENDCHAR
STARTCHAR mWe
ENCODING 5000
SWIDTH 351 0
DWIDTH 30 0
BBX 28 7 1 2
BITMAP
0FFFC000
39DEE3F0
71DEFF70
F39CEF30
F79DE770
E73DC3E0
FF1F0000
ENDCHAR
STARTCHAR bWe
ENCODING 5001
SWIDTH 200 0
DWIDTH 20 0
BBX 18 13 1 0
BITMAP
3F0000
738000
E38000
E38000
E38FC0
E3FDC0
E39CC0
E39DC0
E38F80
E38000
E38000
E38000
E3C000
ENDCHAR
STARTCHAR GWe
ENCODING 5002
SWIDTH 321 0
DWIDTH 21 0
BBX 19 16 0 0
BITMAP
E03C00
F07800
FFF800
078000
3FC000
39E000
71E000
01C000
01E7C0
01FEE0
01DE60
03CFE0
03C7C0
038000
038000
038000
ENDCHAR
STARTCHAR fWe
ENCODING 5003
SWIDTH 284 0
DWIDTH 20 0
BBX 18 14 0 -1
BITMAP
078000
038000
038F80
07FFC0
0F39C0
0E39C0
1C1F80
3F0000
7F8000
F38C00
E39C00
E3FE00
FE0C00
780000
ENDCHAR
STARTCHAR pWe
ENCODING 5004
SWIDTH 284 0
DWIDTH 20 0
BBX 18 14 0 0
BITMAP
0FFE00
F3CF00
E38700
C38000
038000
038000
03FFC0
03BDC0
039DC0
039FC0
038000
038000
038000
038000
ENDCHAR
STARTCHAR `ke/k2e
ENCODING 5008
SWIDTH 212 0
DWIDTH 15 0
BBX 13 15 1 0
BITMAP
0320
F338
F770
F1E0
FFC0
F9C0
71E0
71E0
F1E0
F1E0
F1E0
F1C0
F1C0
F1C0
71E0
ENDCHAR
STARTCHAR `ku/k2u
ENCODING 5009
SWIDTH 272 0
DWIDTH 16 0
BBX 15 15 0 0
BITMAP
0260
F678
FF70
F1C0
FFC0
FBC0
71C0
71C0
F1FE
F1FE
F1CE
F3C0
F3C0
F3C0
71C0
ENDCHAR
STARTCHAR `ki/k2i
ENCODING 5010
SWIDTH 290 0
DWIDTH 17 0
BBX 16 16 1 -1
BITMAP
0260
F678
FF70
F1C0
FFC0
FBC0
71C0
71C0
F1C0
F1C0
F1C0
F3C0
F3C2
F3CE
71FE
000F
ENDCHAR
STARTCHAR `ka/k2a
ENCODING 5011
SWIDTH 212 0
DWIDTH 13 0
BBX 13 15 1 0
BITMAP
0320
F338
F770
F1E0
FFC0
F9C0
71E0
71E0
F1E0
F1E0
F1E0
71C0
01C0
01C0
01E0
ENDCHAR
STARTCHAR `kE/k2E
ENCODING 5012
SWIDTH 266 0
DWIDTH 16 0
BBX 14 15 1 0
BITMAP
0260
F270
F770
F1C0
FFC0
F9C0
71C0
71C0
F1C0
F1C0
F1C0
F1F0
F1FC
F1DC
71FC
ENDCHAR
STARTCHAR `k/k2
ENCODING 5013
SWIDTH 212 0
DWIDTH 13 0
BBX 13 15 1 0
BITMAP
0320
F338
F770
F1E0
FFC0
F9C0
71E0
71E0
7DE0
39E0
71E0
71C0
71C0
F1C0
71E0
ENDCHAR
STARTCHAR `ko/k2o
ENCODING 5014
SWIDTH 212 0
DWIDTH 13 0
BBX 13 15 1 0
BITMAP
0320
F338
F770
F1E0
FFC0
F9C0
71E0
71E0
F1E0
F1C0
F1C0
F1E0
F000
F000
7000
ENDCHAR
STARTCHAR mWi
ENCODING 5016
SWIDTH 357 0
DWIDTH 28 0
BBX 27 15 0 0
BITMAP
00000C00
07FF0E00
3FFF8E00
7739FE00
F739DE00
F739CFE0
F73F81E0
7F0F00E0
3F000000
1E000000
3C000000
78000000
F0000000
E0000000
E0000000
ENDCHAR
STARTCHAR bWi
ENCODING 5017
SWIDTH 200 0
DWIDTH 20 0
BBX 18 13 1 0
BITMAP
3F0000
738000
E39C00
E39C00
E39C00
E3FC00
E3BF80
E383C0
E383C0
E38080
E38000
E38000
E3C000
ENDCHAR
STARTCHAR GWi
ENCODING 5018
SWIDTH 339 0
DWIDTH 22 0
BBX 20 16 0 0
BITMAP
E03800
F07800
FFF800
078000
3FC000
39C000
71EF00
01CF00
01FF00
01CE00
03CFE0
03C0F0
038070
038000
038000
038000
ENDCHAR
STARTCHAR fWi
ENCODING 5019
SWIDTH 284 0
DWIDTH 21 0
BBX 19 14 0 -1
BITMAP
078C00
039E00
039E00
07FC00
071C00
0E1FE0
1C01E0
3F00E0
7F8000
F38E00
F39C00
F3FE00
FE0E00
780000
ENDCHAR
STARTCHAR pWi
ENCODING 5020
SWIDTH 284 0
DWIDTH 19 0
BBX 20 14 0 0
BITMAP
0FFF00
F3C700
E3C700
E3C000
03DE00
03DE00
03FE00
03DE00
03DFC0
0381E0
0380E0
038000
038000
03C000
ENDCHAR
STARTCHAR Xe
ENCODING 5024
SWIDTH 272 0
DWIDTH 18 0
BBX 16 17 0 0
BITMAP
0860
1C70
3CFC
77DE
7FFE
73CE
C3BC
03CE
01CF
03CF
03CF
03CF
03CF
03CF
03CF
03CF
03CF
ENDCHAR
STARTCHAR Xu
ENCODING 5025
SWIDTH 339 0
DWIDTH 20 0
BBX 20 17 0 0
BITMAP
084000
187000
3CEC00
779C00
7FFE00
738C00
C3BC00
03DE00
01CE00
038F00
038F60
038FF0
038E70
038E00
038E00
038E00
03CF00
ENDCHAR
STARTCHAR Xi
ENCODING 5026
SWIDTH 357 0
DWIDTH 21 0
BBX 21 18 0 -1
BITMAP
084000
187000
3CEC00
779C00
7FFE00
738C00
C3B800
03DE00
018E00
038E00
038E00
038E00
038E00
038E00
038E00
038E70
03CFF0
000078
ENDCHAR
STARTCHAR Xa
ENCODING 5027
SWIDTH 272 0
DWIDTH 16 0
BBX 16 17 0 0
BITMAP
0860
1C70
3CFC
77DE
7FFE
738E
C3BC
03CE
01CF
03CF
03CF
03CF
03CF
03CF
000F
000F
000F
ENDCHAR
STARTCHAR  XE
ENCODING 5028
SWIDTH 327 0
DWIDTH 20 0
BBX 19 17 0 0
BITMAP
084000
187000
3CEC00
779C00
7FFE00
778C00
C7B800
07DE00
018E00
038E00
038E00
078E00
078E00
038F00
038FE0
038EE0
038FE0
ENDCHAR
STARTCHAR X
ENCODING 5029
SWIDTH 272 0
DWIDTH 16 0
BBX 16 17 0 0
BITMAP
0860
1C70
3CFC
77DE
7FFE
738E
C3BC
03CE
01CF
03CF
03EF
00EF
01CF
01CF
03CF
03CF
03CF
ENDCHAR
STARTCHAR Xo
ENCODING 5030
SWIDTH 272 0
DWIDTH 16 0
BBX 16 17 0 0
BITMAP
0860
1C70
3CFC
77DE
7FFE
738E
C3BC
03CE
01CF
03CF
03CF
03CF
03CF
03CF
03C0
03C0
03C0
ENDCHAR
STARTCHAR mWE
ENCODING 5032
SWIDTH 375 0
DWIDTH 23 0
BBX 21 20 1 -5
BITMAP
07FFE0
3FDEF0
73DCF0
E3BCF0
E7BCE0
FF1FE0
1801E0
0001C0
0003C0
000380
000780
000700
000F00
000FE0
000EF0
001EF0
007FC0
038000
078000
070000
ENDCHAR
STARTCHAR bWE
ENCODING 5033
SWIDTH 296 0
DWIDTH 18 0
BBX 14 15 1 -2
BITMAP
3F00
7700
E780
E780
E780
E780
E780
E780
E780
E7F0
07B8
07B8
1FE0
F000
F000
ENDCHAR
STARTCHAR GWE
ENCODING 5034
SWIDTH 266 0
DWIDTH 17 0
BBX 15 18 0 -2
BITMAP
700E
381E
3FFE
03E0
1FF0
1C78
3870
0070
00F0
00E0
01E0
01FC
01DE
03DE
0FF8
F000
F000
E000
ENDCHAR
STARTCHAR fWE
ENCODING 5035
SWIDTH 266 0
DWIDTH 18 0
BBX 16 20 1 -5
BITMAP
01E0
01E0
01E0
03C0
0780
0FE0
1EF0
1EF0
1FFE
04EF
00E7
01E0
01C0
01FC
03DE
03DC
3FF8
F000
F000
E000
ENDCHAR
STARTCHAR pWE
ENCODING 5036
SWIDTH 284 0
DWIDTH 20 0
BBX 17 20 0 -5
BITMAP
1FFF80
38E780
78E380
31E000
01E000
01E000
01E000
01E000
01C000
01C000
01C000
01C000
01C000
01F800
03DC00
03DC00
07F800
380000
780000
700000
ENDCHAR
STARTCHAR `ge/g2e
ENCODING 5040
SWIDTH 176 0
DWIDTH 15 0
BBX 13 17 0 0
BITMAP
0C60
1C78
1E70
03C0
0F80
39C0
39E0
31E0
01C0
01C0
01C0
03C0
03C0
0380
0380
0380
0380
ENDCHAR
STARTCHAR `gu/g2u
ENCODING 5041
SWIDTH 254 0
DWIDTH 15 0
BBX 17 17 0 0
BITMAP
042000
0C3800
1E7800
03C000
0FC000
3DE000
3CE000
38E000
00E000
01E000
01EE00
01EF00
01CF00
01C000
03C000
03C000
03C000
ENDCHAR
STARTCHAR `gi/g2i
ENCODING 5042
SWIDTH 254 0
DWIDTH 15 0
BBX 16 18 0 -1
BITMAP
0420
0C38
1E78
03C0
0FC0
3DE0
3CE0
38E0
00E0
01E0
01E0
01C0
01C0
01C0
03C0
03CE
03FE
000F
ENDCHAR
STARTCHAR `ga/g2a
ENCODING 5043
SWIDTH 230 0
DWIDTH 14 0
BBX 16 17 0 0
BITMAP
0218
071C
0FBC
01E0
1FE0
1E70
1C70
0078
0078
0078
0070
0070
00F0
01E0
FF80
F000
E000
ENDCHAR
STARTCHAR `gE/g2E
ENCODING 5044
SWIDTH 230 0
DWIDTH 14 0
BBX 14 17 0 0
BITMAP
0C20
0C38
1E70
03C0
0FC0
3DE0
39E0
38E0
01E0
01E0
01C0
01C0
01C0
03F0
03FC
039C
03FC
ENDCHAR
STARTCHAR `g/g2
ENCODING 5045
SWIDTH 218 0
DWIDTH 13 0
BBX 15 17 0 0
BITMAP
0218
061E
0F3C
01F0
0FE0
7E70
E770
EE70
FC70
0070
00F0
00F0
00F0
00E0
00E0
01E0
00E0
ENDCHAR
STARTCHAR `go/g2o
ENCODING 5046
SWIDTH 200 0
DWIDTH 12 0
BBX 14 17 1 0
BITMAP
1840
1870
3CE0
0780
0700
0780
07C0
38E0
38F0
70E0
00E0
00E0
01E0
01C0
01C0
01C0
01C0
ENDCHAR
STARTCHAR mW
ENCODING 5048
SWIDTH 357 0
DWIDTH 28 0
BBX 26 15 0 0
BITMAP
00000E00
07FF0E00
3FFFCE00
7739FF80
F739C3C0
F739C1C0
F73FC080
7F0F0000
3F000000
1E000000
3C000000
78000000
F0000000
E0000000
E0000000
ENDCHAR
STARTCHAR bW
ENCODING 5049
SWIDTH 200 0
DWIDTH 20 0
BBX 18 13 1 0
BITMAP
3F0000
738000
E39C00
E39C00
E3BC00
E3FF80
E38780
E38380
E38000
E38000
E38000
E38000
E3C000
ENDCHAR
STARTCHAR GW
ENCODING 5050
SWIDTH 308 0
DWIDTH 20 0
BBX 18 16 0 0
BITMAP
E03800
F07800
FFF800
078000
3FC000
39CE00
71EE00
01CE00
01FFC0
01C3C0
03C1C0
03C000
038000
038000
038000
038000
ENDCHAR
STARTCHAR fW
ENCODING 5051
SWIDTH 284 0
DWIDTH 20 0
BBX 18 14 0 -1
BITMAP
079C00
039C00
039C00
07FF80
0F0780
0E0380
1C0000
3F0000
7F8000
F38C00
E39C00
E3FE00
FE0C00
780000
ENDCHAR
STARTCHAR pW
ENCODING 5052
SWIDTH 284 0
DWIDTH 19 0
BBX 18 14 0 0
BITMAP
0FFE00
F38E00
E38600
C39C00
03BC00
03BC00
03FC00
038780
038780
078300
078000
078000
078000
038000
ENDCHAR
STARTCHAR Ornament
ENCODING 65008
SWIDTH 308 0
DWIDTH 18 0
BBX 12 15 3 -1
BITMAP
0000
0400
0C00
1E00
1A00
3300
2180
6180
C180
C0E0
4060
60C0
3380
1E00
0000
ENDCHAR
STARTCHAR Eritrea/Ethiopia
ENCODING 65009
SWIDTH 308 0
DWIDTH 18 0
BBX 12 15 3 -1
BITMAP
0000
0400
0C00
1E00
1A00
3300
2180
6180
C180
C0E0
4060
60C0
3380
1E00
0000
ENDCHAR
STARTCHAR Inverted-Eritrea/Ethiopia
ENCODING 65010
SWIDTH 308 0
DWIDTH 18 0
BBX 12 15 3 -1
BITMAP
0000
0400
0C00
1E00
1E00
3F00
3F80
7F80
FF80
FFE0
7FE0
7FC0
3F80
1E00
0000
ENDCHAR
STARTCHAR Africa
ENCODING 65011
SWIDTH 308 0
DWIDTH 18 0
BBX 12 15 3 -1
BITMAP
0000
1F80
7FC0
C040
8060
8070
E810
3C10
0430
0620
0220
0260
0240
0340
0180
ENDCHAR
STARTCHAR Inverted-Africa
ENCODING 65012
SWIDTH 308 0
DWIDTH 18 0
BBX 12 15 3 -1
BITMAP
0000
1F80
7FC0
FFC0
FFE0
FFF0
FFF0
3FF0
07F0
07E0
03E0
03E0
03C0
03C0
0180
ENDCHAR
STARTCHAR wWe
ENCODING 65013
SWIDTH 266 0
DWIDTH 16 0
BBX 17 12 1 0
BITMAP
3FF000
773800
E73800
E73800
E73800
FF7000
3FC200
0F3F80
0F7380
0F7380
0F3F00
0F1000
ENDCHAR
STARTCHAR wWi
ENCODING 65014
SWIDTH 381 0
DWIDTH 23 0
BBX 22 12 0 0
BITMAP
3FF1C0
7739C0
E73DC0
E73FC0
E73BF8
FF703C
3FC01C
0F0000
0F0000
0F0000
0F0000
0F0000
ENDCHAR
STARTCHAR wWa
ENCODING 65015
SWIDTH 260 0
DWIDTH 16 0
BBX 14 13 0 -1
BITMAP
1FF8
779C
F79C
E79C
E7BC
F7F8
7FF0
0700
0F00
7FF0
70F0
70E0
00E0
ENDCHAR
STARTCHAR wWE
ENCODING 65016
SWIDTH 260 0
DWIDTH 16 0
BBX 15 15 0 -3
BITMAP
0FFC
39CE
39CE
79CE
7BDE
7BDC
1FF8
0380
03F8
039C
039C
3FF0
F000
F000
E000
ENDCHAR
STARTCHAR wW
ENCODING 65017
SWIDTH 381 0
DWIDTH 23 0
BBX 21 12 0 0
BITMAP
3FF1C0
77B9C0
F7BDC0
E73C78
E73878
FF7038
3FE000
0F0000
0F0000
0F0000
0F0000
0F8000
ENDCHAR
STARTCHAR Ethiopic-Gemination
ENCODING 65018
SWIDTH 434 0
DWIDTH 14 0
BBX 15 4 -1 21
BITMAP
001E
E01E
E01E
E01C
ENDCHAR
STARTCHAR Ethiopic-Sarcasm-Mark
ENCODING 65019
SWIDTH 0 0
DWIDTH 0 0
BBX 3 15 1 0
BITMAP
E0
E0
C0
00
40
40
C0
C0
E0
E0
E0
E0
E0
E0
E0
ENDCHAR
STARTCHAR Ethiopic-Point
ENCODING 65020
SWIDTH 0 0
DWIDTH 9 0
BBX 3 3 1 0
BITMAP
E0
E0
E0
ENDCHAR
STARTCHAR Ethiopic-Left-Quote
ENCODING 65021
SWIDTH 308 0
DWIDTH 14 0
BBX 12 15 -1 -1
BITMAP
0000
0440
0CC0
1DC0
3B80
7700
EE00
CE00
E600
7300
3980
1CC0
0CC0
0000
0000
ENDCHAR
STARTCHAR Ethiopic-Right-Quote
ENCODING 65022
SWIDTH 308 0
DWIDTH 18 0
BBX 12 15 3 -1
BITMAP
0000
2200
3300
3B80
1DC0
0EE0
0770
0330
0670
0CE0
1DC0
3B80
3300
0000
0000
ENDCHAR
STARTCHAR Ethiopic-Sylized-Question-Mark
ENCODING 65023
SWIDTH 0 0
DWIDTH 9 0
BBX 6 15 1 0
BITMAP
E0
F8
08
0C
0C
0C
7C
78
60
60
00
00
60
60
60
ENDCHAR
ENDFONT
